<?xml version="1.0" encoding="UTF-8"?>
<svg version="1.1" viewBox="0 0 40 40" xmlns="http://www.w3.org/2000/svg">
 <g transform="matrix(.02851399 0 0 .02851399 -.03365217 .01270049)" fill="none" stroke-width="2">
  <path d="m1061.5 24.79q-0.35 1.71 0.91 2.15 0.91 0.32 1.01 0.37 42 21.6 70.08 58.99 5.96 7.94 11.13 16.61 15.08 25.27 23.03 53.79 4.92 17.64 7.3 35.81 1 7.62 2.08 15.24" stroke="#fccb17" vector-effect="non-scaling-stroke"/>
  <path d="m1177.04 207.75q3.86 53.48-5.5 106.26-10.4 58.68-31.3 114.48-29.6 79.02-72.73 151.54-2.16 3.64-4.01 7.43" stroke="#fedc3f" vector-effect="non-scaling-stroke"/>
  <path d="m1063.5 587.46q-63.51 104.66-145.94 196.85-113.58 127.04-251.79 224.94-71.55 50.69-149.82 90.21-59.76 30.17-123.49 50.66-50.95 16.38-96.71 22.63-30.98 4.23-62.25 4.18-7.94-0.01-15.86-0.59a0.58 0.29-61.3 0 0-0.41 0.28q-0.14 0.2-0.49 0.02" stroke="#fccb17" vector-effect="non-scaling-stroke"/>
  <path d="m216.74 1176.64q-35.93-2.27-68.99-12.64-80.1-25.13-119.46-99.19-0.04-0.08-1.28-2.82-1.27-2.79-3.72-4.74" stroke="#f1bf10" vector-effect="non-scaling-stroke"/>
  <path d="m141.5 680.21q-18.37 34.86-35.31 76.48-20.98 51.52-32.17 103.51-2.19 10.16-3.74 19.65-4.98 30.3-5.28 57.15-0.31 27.25 4.79 53.99 4.87 25.51 16.52 47.45 19.07 35.89 56.32 53.35 27.23 12.76 59.81 16.52 29.5 3.41 60.06 0.69 40.91-3.64 79.47-14.18a0.92 0.81-2.1 0 0 0.63-0.6l0.4-1.51" stroke="#ebb70f" vector-effect="non-scaling-stroke"/>
  <path d="m1093.04 343q1.52-3.52 1.79-6.8" stroke="#ebb70f" vector-effect="non-scaling-stroke"/>
  <path d="m1094.83 336.2q7.27-25.84 11.42-55.95 5.02-36.41 1.59-71.26-1.06-10.76-2.89-19.77-3.97-19.51-11.76-36.91-14.81-33.06-44.16-53.98-7.81-5.57-17.14-10.27-17.94-9.06-36.64-13.31-36.81-8.37-76.26-5.87-42.66 2.7-84.04 13.44-24.78 6.44-48.95 14.92-46.39 16.26-90.43 38.09-77.78 38.56-148.36 89.09-70.43 50.43-133.98 109.3-48.96 45.36-95.54 96.97-58.61 64.93-107.19 135.31-39.22 56.82-69 114.21" stroke="#dca90a" vector-effect="non-scaling-stroke"/>
  <path d="m1094.83 336.2q-65.43-48.93-144.02-62.01-54.03-9-108.58-3.62-23.61 2.33-46.92 6.73-37.43 7.06-73.75 18.52-29.06 9.16-50.5 17.49-1.09 0.43-1.1-0.56" stroke="#ca8c18" vector-effect="non-scaling-stroke"/>
  <path d="m669.96 312.75q4.95-8.62-0.6-16.89-2.97-4.42-8.92-6.55-8.41-3-16.57-3.48-7.86-0.47-16.59 1.81-14.86 3.88-26.9 13.98-9.58 8.03-15.07 17.44-10.8 18.53-16.09 41.24" stroke="#dc9f0d" vector-effect="non-scaling-stroke"/>
  <path d="m569.22 360.3q-4.49 1.26-7.97 3.49" stroke="#c98c18" vector-effect="non-scaling-stroke"/>
  <path d="m561.25 363.79q-10.18-3-19.5-0.54-34.15 9.03-55.31 38.19-4.89 6.73-7.95 10.19" stroke="#dc9f0d" vector-effect="non-scaling-stroke"/>
  <path d="m478.49 411.63q-92.2 58-176.78 126.71" stroke="#ca8c18" vector-effect="non-scaling-stroke"/>
  <path d="m301.71 538.34q-5.89-5.84-13.18-3.72-7.56 2.19-10.97 6.69-9.55 12.6-18.1 32.44" stroke="#dc9f0d" vector-effect="non-scaling-stroke"/>
  <path d="m259.46 573.75q-1.48 0.79-4.27 3.19-60.66 52.08-113.01 103.14a0.58 0.37-54.6 0 1-0.43 0.17l-0.25-0.04" stroke="#ca8c18" vector-effect="non-scaling-stroke"/>
  <path d="m259.46 573.75q-12.45 32.13-15.15 66.5-1.62 20.71-0.45 41.44 0 0.08 0.42 4.59 0.34 3.6-0.04 7.22-1.61 15.24-0.08 32.27 0.08 0.89-0.63 0.35-5.99-4.58-12-3.67-5.67 0.86-7.09 1.74-17.13 10.59-27.21 28.02-8.78 15.2-11.74 32.54-1.94 11.39-1.74 22.87 0.14 7.78 2.44 19.48 5.7 29.01 9.31 42.4 4.31 15.99 5.45 32.5 0.58 8.26-0.96 16.31-0.76 3.97-2.78 6.76-2.54 3.51-5.52 5.12-8.96 4.84-18.26-0.01-1.53-0.8-2.03-2.45-1-3.27-1.52-6.39-0.49-2.96 0.52-5.56 1.98-5.09 5.87-8.95 1.28-1.28 3.95-2.32 3.7-1.45 6.54-4.1 3.81-3.55 4.76-8.34 1.46-7.32-4.34-13.5-6.28-6.69-15.18-4.57-5.76 1.37-10.9 4.46-4.61 2.77-8.88 7.52-8.8 9.8-12.69 22.28-2.67 8.57-1.84 17.2 0.87 8.92 4.52 17.04 3.86 8.59 10.77 14.32 11.55 9.57 27.53 10.54 15.24 0.92 29.3-7.05 14.24-8.07 19.57-22.76 2.56-7.09 3.61-14.55 4.93-35.1-7.3-68.19-4.52-12.21-7.39-26.3-0.27-1.35-0.29-3.05-0.02-1.41-0.11-3.1a0.3 0.3-78.6 0 1 0.43-0.29q6.83 3.41 14.08 4.91 7.62 1.58 14.72 0.46 10.36-1.63 19.4-8a0.85 0.85-24.5 0 1 1.31 0.49q2.26 8.86 5.68 18.02 4.24 11.35 5.23 23.35 0.31 3.71-0.13 8.39-0.4 4.18-0.85 8.35-0.01 0.11-0.41 4.92-1.38 16.6-14.17 26.48-5.93 4.59-6.44 5.15-3.06 3.36-3.94 7.47-2.38 11.12 6.05 16.32 3.24 1.99 8.17 2.49 4.32 0.43 8.66 0.11 2.3-0.18 4.24-1.51 11.53-7.93 18.76-19.53 8.29-13.32 11.21-28.83 1.25-6.61 0.8-15.3-1.1-21.23-5.2-43.81-0.81-4.47-1.25-10.29-0.49-6.41-1.31-10.22-1.94-8.98-5.88-22.8-11.11-39-17.6-85.68-0.67-4.83-1.1-9.67-0.43-4.93 0.36-9.65 1.88-11.16 5.49-21.82 0.28-0.82 0.72-0.07 7.37 12.37 19.92 18.07 5.99 2.73 12.9 4.46 7.18 1.8 13.75 1.17 9.87-0.94 18.25-7 10.74-7.77 15.69-19.56 5.81-13.86 8.04-31.69 1.51-12.05 3.66-24 1.53-8.52 2.31-14.55 0.95-7.32 1.89-14.63 1.68-13.12 6.03-25.57 0.66-1.9 1.8-3.67 1.03-1.61 2.24-3.45a0.68 0.67-54.6 0 1 0.97-0.17q0.91 0.71 1.51 1.94 10.66 21.93 35.11 25.35 7.93 1.11 15.1-0.95 4.92-1.42 9.29-3.83 4.78-2.64 7.8-6.53 8.92-11.53 14.62-27.63 4.14-11.69 8.98-33.97 0.02-0.07 1.91-9.58 2.32-11.65 6.15-22.88 2.3-6.76 6.74-15.79 3.82-7.74 7.66-15.4 0.44-0.87 0.87 0 10.7 21.28 32.65 26.73 7.91 1.97 14.57 0.82 7.83-1.35 13.72-6.18 6.8-5.57 10.38-11.62 20.07-33.98 23.09-74.75 0.03-0.5 0.32-0.09 6.29 8.95 15.16 14.9 6.89 4.63 14.31 6.24 7.92 1.72 15.93 0.51 7.56-1.14 15-4.04 7.54-2.93 13.2-7.85 11.39-9.93 16.59-24.45 1.19-3.33 1.23-5.96 0.05-3.1-0.82-6.14-2.01-7.02-7.58-10.22-5.17-2.98-11.59-1.56-8.96 1.98-12.71 11.18-0.01 0.04-0.83 3.16-0.49 1.85-1.79 3.33-2.15 2.43-4.44 4.72-1.93 1.92-4.24 2.53-4 1.05-8.74 1.05a1.57 1.57 67.5 0 1-1.11-0.46q-2.82-2.82-5.86-5.85-0.06-0.07-1.54-1.47-6.75-6.38-4.66-15.84" stroke="#ecad12" vector-effect="non-scaling-stroke"/>
  <path d="m628.36 330.63q11.43-4.13 21.99-9.11" stroke="#ca8c18" vector-effect="non-scaling-stroke"/>
  <path d="m650.35 321.52q12.34 1.54 19.61-8.77" stroke="#ecad12" vector-effect="non-scaling-stroke"/>
  <path d="m650.35 321.52q-2.44-0.42-9.6-0.52-3.01-0.04-4.61 1.6-1.23 1.26-1.28 1.31-3.4 2.91-6.5 6.72" stroke="#dc9f0d" vector-effect="non-scaling-stroke"/>
  <path d="m301.71 538.34q3.49 3.76 5.49 9.43 1.47 4.17 0.35 7.96-0.58 1.95-3.92 6.51-13.62 18.55-19.99 40.78-0.14 0.48 0.2 0.12 12.38-13.08 26.17-24.63 4.13-3.45 7.51-4.52 4.57-1.44 8.98-0.74 6.69 1.06 12.48 5.9 1.82 1.52 2.53 3.12 0.77 1.75 0.99 3.98 0.05 0.52 0.52 0.91 0.41 0.34 0.49-0.22 3.44-22.61 8.99-39.94 4.4-13.72 13.69-28.81 11.98-19.47 29.58-31.31 2.47-1.67 5.8-3.28 3-1.46 6.02-2.88 8.98-4.23 18.64-6.54 8.97-2.14 19.52-0.18 5.09 0.95 8.28 3.15a0.35 0.34 24.6 0 0 0.53-0.19q7.79-30.37 10.25-37.15 2.03-5.58 13.68-28.18" stroke="#ecad12" vector-effect="non-scaling-stroke"/>
  <path d="m561.25 363.79 5.85 3.19a0.51 0.49 20.9 0 0 0.74-0.31l1.38-6.37" stroke="#ebad12" vector-effect="non-scaling-stroke"/>
  <path d="m1055.75 1128.54q-0.15-0.79-0.73-0.81-0.35-0.01-0.8 0.38-4.08 3.54-18.41 15.2-87.73 71.39-192.69 109.07-9.47 3.4-18.95 6.39-64.36 20.27-131.69 26.56-49.43 4.62-101.48 2.17-6.3-0.3-9.82-0.87" stroke="#f0b626" vector-effect="non-scaling-stroke"/>
  <path d="m581.18 1286.63q29.94-13.13 57.67-30.23 13.94-8.59 16.75-10.91 8.64-7.14 12.59-17.3 3.61-9.28 5.4-23.61 0.01-0.05 0.42-2.65 0.46-2.87 0.15-6.51-0.11-1.16 0.75-0.38 6.19 5.6 13.43 9.54 5.43 2.96 11.71 4 7.89 1.31 15.95 0.97 9.91-0.42 18.36-4.64 7.79-3.89 14.13-11.81 9.83-12.27 12.93-28.32 2.21-11.41 2.54-23.03 0.18-6.09 0.47-12.18 0.31-6.56 1.42-12.07 1.94-9.69 4.92-19.05 0.3-0.96 0.91-0.15 16.55 22.37 44.31 26.27 13.05 1.83 25.76-3.07 12.4-4.78 20.07-14.91 1.62-2.14 2-4.15 0.37-1.94 0.43-4.69 0.85-39.14 16.47-75.73a0.49 0.49-52.3 0 1 0.84-0.11q5.07 6.62 12.74 11.05 21.82 12.6 45.59 8.11 9.68-1.83 18.76-6.66 14.92-7.94 25.68-21.65 0.45-0.58 0.43 0.16-0.61 18.82-5.25 36.72-3.18 12.21-8.92 23.44-8.11 15.86-21.85 27.17-5.22 4.3-7.12 10.46-1.39 4.48-0.29 8.1 1.17 3.89 4.73 7.13 6.88 6.25 14.78 4.6 3.3-0.69 7.53-3.97 4.06-3.14 7.99-6.45 13.64-11.52 23.24-26.33 5.1-7.87 9.37-17.64 13.73-31.46 13.1-66.4-0.28-15.26-1.15-30.51-1.17-20.42-5.22-40.75-0.25-1.27 0.89-0.66 4.02 2.17 8.9 2.72 6.62 0.76 13.27 1 23.26 0.86 41.31-13.48 3.98-3.17 7.62-8.13 13.97-19.09 19.43-41.41 3.92-16.02 3.9-32.53-0.02-21.75-0.02-43.62 0-1.63 1.36-0.72 8.82 5.91 20.15 7.03 5.83 0.58 12.3-1.13 15.16-3.98 24.87-15.63 10.11-12.13 14.63-24.37 5.78-15.64 8.35-36.32 3.34-26.79-4.62-52.36-0.36-1.16 0.76-0.7 16.6 6.86 33.91 1.82" stroke="#fccb17" vector-effect="non-scaling-stroke"/>
  <path d="m1222.71 680q23.2 28.64 28.79 63.25 4.16 25.76 1 50.5-4.32 33.82-16.97 67.01-14 36.72-33.24 70.98-17.06 30.37-36.55 59.23-34.1 50.46-72.92 97.39a0.66 0.44-51.1 0 0-0.07 0.81q0.3 0.23 0.8-0.35 1.97-2.29 4.09-4.43 53.24-53.7 98.42-114.33 55.67-74.69 92.05-155.62 29.16-64.88 43.17-134.63 12.31-61.31 10.72-123.06-2.53-98.26-40.59-189.18-18.35-43.83-45.25-82.99-13.03-18.97-28.38-36.11-13.33-14.89-30.47-28.28-9.97-7.8-20.27-12.44" stroke="#fdd356" vector-effect="non-scaling-stroke"/>
  <path d="m1222.71 680q22.94-8.1 32.6-29.94 7.27-16.41 0.28-32.75-1.4-3.26-3.89-5.19-3.5-2.7-8.14-4.43-5.26-1.96-10.15-0.75-2.59 0.64-4.41 2.94-2.79 3.54-4.5 8.12-2.62 7.03-0.03 13.76 2.82 7.34-0.54 12.83-3.02 4.93-9.43 6.63-8.1 2.14-14.5-4.14-1.15-1.13-4.26-3.86-2.43-2.13-3.43-4.78-1.11-2.95-1.3-7.09-0.21-4.67 0.31-6.67 0.83-3.2 3.74-5.87 6.6-6.05 13.53-11.71 4.62-3.78 4.41-10.6-0.33-10.68-9.16-15-6.75-3.3-13.03-0.44-6.58 3.01-15.18 9.35-7.45 5.49-11.69 12.28-2.63 4.2-13.09 22.62" stroke="#fedc3f" vector-effect="non-scaling-stroke"/>
  <path d="m1150.85 625.31q-21.67-10.81-43.92-19.74-21.84-8.76-43.43-18.11" stroke="#fdd356" vector-effect="non-scaling-stroke"/>
  <g stroke="#ebad12">
   <path d="m542.44 418.81q2.62 1.95 4.8 1.96a0.93 0.85-72.1 0 0 0.77-0.44q6.77-10.88 10.74-23.07a0.53 0.48 22.1 0 0-0.29-0.59l-3.8-1.87q-0.6-0.3-0.92-0.29-9.7 0.25-15.08 8.2-2.06 3.05-1.61 6.78 0.7 5.85 5.39 9.32" vector-effect="non-scaling-stroke"/>
   <path d="m430.24 536.13q3.69 2.08 9.12 1.47a2.24 2.24 11.3 0 0 1.7-1.13q7.84-13.89 10.03-30.67a1.13 1.12 4.9 0 0-1.07-1.27q-6.18-0.24-13.01 0.34-6.7 0.58-11.12 4.69-4.38 4.06-4.84 10.13-0.44 5.7 2.94 10.38 3.11 4.29 6.25 6.06" vector-effect="non-scaling-stroke"/>
   <path d="m313.66 652.34q1.94 1.6 4.36 2.07 2.22 0.42 2.32 0.45 1.35 0.32 2.71 0.57 2.28 0.42 3.69-0.6 1.78-1.29 3.01-3.83 3.36-6.94 4.29-11.49 2.59-12.72 4.44-25.56 0.58-4.02 1.45-8.23 0.78-3.79 1.6-8.21 0.09-0.5-0.23-0.1-1.98 2.51-3.93 4.48-1.69 1.71-4.88 3.3-14.73 7.34-21.72 22.61-2.12 4.63-2.75 9.6-0.6 4.67 0.68 8.1 1.48 3.99 4.96 6.84" vector-effect="non-scaling-stroke"/>
   <path d="m239.35 798.75q4.57 0.44 7.6-3.21 2.04-2.45 3.08-7.03 2.16-9.54-0.28-19.26-0.84-3.37-2.19-14.01a1.83 1.61-39.2 0 1 0.16-0.95q1.65-3.51 2.28-6.29 0.85-3.77-1.93-6.13a0.36 0.34-59.8 0 0-0.55 0.16q-2.53 6.68-7.33 9.41-5.55 3.14-9.13 7.12-8.58 9.54-7.32 22.15 0.38 3.83 2.28 7.1 1.92 3.32 4.57 6.08 4.26 4.43 8.76 4.86" vector-effect="non-scaling-stroke"/>
  </g>
  <path d="m581.18 1286.63q-40.43-2.17-80.43-9.59" stroke="#f1bf10" vector-effect="non-scaling-stroke"/>
  <path d="m500.75 1277.04q64.71-16.07 124.11-46.15 0.19-0.1 7.69-3.83 6.82-3.4 8.39-4.87 2.04-1.92 3.12-5.38 2.83-9.05 3.35-17.68 0.63-10.44 0.73-11.22 1.85-14.02 6.3-28.72 5.45-18.04 15.29-32.73 15.43-23.03 42.5-29.28 7.56-1.74 12.8 3.79 5.8 6.11 6.46 14.14 0.36 4.39-1.65 7.93-2.15 3.79-5.82 6.15-0.77 0.5-7.29 3.03-9.06 3.5-14.72 11.77-6.6 9.66-4.29 21.27 2.08 10.4 12.52 12.31 2.71 0.5 5.45 0.83 0.05 0 2.96 0.58 2.88 0.58 5.29-1.04 3.5-2.36 5.63-6.02 1.57-2.7 2.65-7.6 2.22-10.13 2.03-21.57-0.22-13.04 2.03-26.76 1.66-10.1 4-19.58 5.01-20.28 15.21-38.69 4.69-8.47 12.07-17.16 17.86-21.01 44.5-26.5 6.34-1.3 10.87 1.62 2.84 1.82 5.42 6.25 2.35 4.05 3.15 7.82 1.78 8.35-5.44 13.58-4.81 3.49-9.31 4.42-4.1 0.85-7.05 2.93-2.34 1.65-5.32 5.22-4.04 4.82-5.38 10.6-1.94 8.35 3.01 15.97 4.82 7.42 13.73 8.37 9.22 0.98 17.82-2.7a1.52 1.52-9.2 0 0 0.91-1.26q0.83-9.74 2.42-19.2 1.53-9.15 3.66-18.97 6.22-28.8 19.07-55.31 3.48-7.18 7.39-13.39 3.75-5.94 8.55-12.7 6.87-9.65 15.3-16.91 5.57-4.8 9.05-6.97 4.95-3.07 10.67-4.43 4.54-1.08 8.36-1.34 4.79-0.33 8.5 1.15 11.42 4.57 10 17.93-1.04 9.89-9.42 13.4-1.5 0.62-5.19 0.87-8.46 0.55-12.39 8.18-4.1 7.96 0.17 14.85 2.19 3.52 4.8 5.91 2.73 2.5 6.78 3.86 7.33 2.47 13.85 1.13 7.8-1.61 11.4-4 8.71-5.81 14.25-17.5 5.05-10.68 5.81-24.19 0.52-9.23 0.14-43.75-0.11-10.25 2.11-20.27 0.5-2.23 0.22-4.49-1.8-14.56-2.12-29.49-0.46-22 4.29-43.47 7.05-31.93 23.38-60.24 10.5-18.22 23.93-34.36 3.24-3.91 6.35-5.47 7.24-3.64 15.31-1.29 2.68 0.78 4.4 2.9 6.39 7.89 3.33 18.5-0.66 2.28-3.53 5.74-30.42 36.74-38.68 85.51-0.01 0.05-0.45 2.23-0.48 2.32-0.41 5.17 0.01 0.69 0.56 0.27 8.97-6.79 18.96-11.41 5.05-2.33 8.78-2.2 4.9 0.18 8.95 2.98 3.13 2.15 4.56 5.08 1.59 3.25 1.17 7.06-1.27 11.62-10.78 18.21-1.75 1.21-1.8 1.25-8.31 6.12-13.81 14.88-3.31 5.28-4.31 11.42-1.66 10.1 5.57 15.59 2.36 1.79 4.93 3.1 2.87 1.44 5.7 1.55 7.86 0.3 15.71-2.56 5.03-1.83 8.58-5.39 5.32-5.34 8.26-12.53 5.31-12.99 6.84-26.79 0.6-5.39 0.5-19.99-0.2-28.06 1.11-48.24 1.62-24.92 13.84-47.46 5.48-10.12 11.44-16.33 12.58-13.09 30.97-16.71 13.05-2.57 19.74 6.83 3.11 4.36 2.94 9.47-0.19 5.56-3.49 9.89-3.78 4.95-10.26 6.51-4.94 1.2-6.16 1.77-6.39 2.98-11.33 8.72-1.23 1.42-1.71 2.93-0.86 2.72-1.01 3.01-0.79 1.47-1.72 2.69-1.21 1.59-0.5 3.45 1.82 4.77 4.75 8.76 1.18 1.61 2.9 2.43 1.32 0.63 3.54 1.6 6.17 2.7 10.78-1.1 4.49-3.69 7.13-8.88 17.32-33.94 9.24-70.78-1.18-5.38-3.76-11.15-2.43-5.39-5.07-10.69-2.09-4.2-3.01-11.46-1.6-12.67 1.06-22.69 1.25-4.69 5.29-14.25" stroke="#fccb17" vector-effect="non-scaling-stroke"/>
  <path d="m500.75 1277.04q-26.71-4.36-53-10.77-93.43-22.79-180.31-63.96-30.83-14.61-50.7-25.67" stroke="#f0b626" vector-effect="non-scaling-stroke"/>
 </g>
 <g stroke-width=".028">
  <path d="m30.233 0.719q-0.01 0.048 0.025 0.061 0.025 0.009 0.028 0.010 1.197 0.615 1.998 1.682 0.169 0.226 0.317 0.473 0.429 0.720 0.656 1.533 0.140 0.502 0.208 1.021 0.028 0.217 0.059 0.434 0.110 1.524-0.156 3.029-0.296 1.673-0.892 3.264-0.844 2.253-2.073 4.321-0.061 0.103-0.114 0.211-1.810 2.984-4.161 5.612-3.238 3.622-7.179 6.413-2.040 1.445-4.271 2.572-1.703 0.860-3.521 1.444-1.452 0.467-2.757 0.645-0.883 0.120-1.774 0.119-0.226-2.85e-4 -0.452-0.016a0.008 0.016 28.7 0 0-0.011 8e-3q-0.003 0.005-0.013 5.7e-4 -1.024-0.064-1.967-0.360-2.283-0.716-3.406-2.828-0.001-0.002-0.036-0.080-0.036-0.079-0.106-0.135-0.591-1.481-0.627-3.079-0.021-0.951 0.114-1.893 0.249-1.735 0.838-3.386 0.812-2.273 2.016-4.366 0.993-1.725 2.175-3.329 2.689-3.650 6.119-6.675 1.753-1.545 3.615-2.837 1.953-1.354 4.082-2.412 1.678-0.834 3.466-1.398 1.002-0.316 2.036-0.510 0.874-0.164 1.796-0.213 0.651-0.034 1.269 0.008 0.991 0.069 1.933 0.382 0.386 0.128 0.768 0.273zm-26.232 18.688q-0.523 0.993-1.006 2.180-0.598 1.469-0.917 2.951-0.062 0.289-0.106 0.560-0.141 0.863-0.150 1.629-0.008 0.777 0.136 1.539 0.138 0.727 0.471 1.352 0.543 1.023 1.605 1.521 0.776 0.363 1.705 0.471 0.841 0.097 1.712 0.019 1.166-0.103 2.266-0.404a0.023 0.026 87.9 0 0 0.017-0.017l0.011-0.043q0.338-0.033 0.662-0.136 1.178-0.374 2.306-0.881 2.143-0.966 4.100-2.270 2.649-1.766 4.971-3.945 1.627-1.526 3.088-3.212 1.608-1.855 2.957-3.906 1.183-1.800 2.062-3.703 0.732-1.586 1.236-3.320 0.043-0.100 0.051-0.193 0.207-0.736 0.325-1.595 0.143-1.038 0.045-2.031-0.030-0.306-0.082-0.563-0.113-0.556-0.335-1.052-0.422-0.942-1.259-1.539-0.222-0.158-0.488-0.292-0.511-0.258-1.044-0.379-1.049-0.238-2.174-0.167-1.216 0.076-2.396 0.383-0.706 0.183-1.395 0.425-1.322 0.463-2.578 1.086-2.217 1.099-4.230 2.540-2.008 1.437-3.820 3.116-1.396 1.293-2.724 2.765-1.671 1.851-3.056 3.858-1.118 1.620-1.967 3.256z" fill="#fdd400"/>
  <path d="m30.233 0.719q0.891 0.332 1.796 0.840 1.079 0.605 2.060 1.361 0.836 0.644 1.552 1.320 0.655 0.618 1.248 1.361 1.078 1.351 1.814 2.916 1.212 2.576 1.294 5.430v0.705l-6e-3 0.197q-0.077 1.609-0.451 3.106-0.413 1.652-1.149 3.272-0.800 1.763-1.859 3.386-1.336 2.048-2.939 3.896-1.670 1.926-3.524 3.676-0.004-0.022-0.020-0.023-0.01-2.85e-4 -0.022 0.010-0.116 0.100-0.524 0.433-2.501 2.035-5.494 3.110-0.270 0.096-0.540 0.182-1.835 0.577-3.755 0.757-1.409 0.131-2.893 0.061-0.179-0.008-0.280-0.024 0.853-0.374 1.644-0.861 0.397-0.244 0.477-0.311 0.246-0.203 0.358-0.493 0.102-0.264 0.153-0.673 2.85e-4 -0.001 0.011-0.075 0.013-0.081 0.004-0.185-0.003-0.033 0.021-0.010 0.176 0.159 0.382 0.272 0.154 0.084 0.333 0.114 0.224 0.037 0.454 0.027 0.282-0.011 0.523-0.132 0.222-0.110 0.402-0.336 0.280-0.349 0.368-0.807 0.063-0.325 0.072-0.656 0.005-0.173 0.013-0.347 0.008-0.187 0.040-0.344 0.055-0.276 0.140-0.543 0.008-0.027 0.025-0.004 0.471 0.637 1.263 0.749 0.372 0.052 0.734-0.087 0.353-0.136 0.572-0.425 0.046-0.061 0.057-0.118 0.010-0.055 0.012-0.133 0.024-1.116 0.469-2.159a0.013 0.013 0 0 1 0.023-0.003q0.144 0.188 0.363 0.315 0.622 0.359 1.299 0.231 0.276-0.052 0.534-0.189 0.425-0.226 0.732-0.617 0.012-0.016 0.012 0.004-0.017 0.536-0.149 1.047-0.090 0.348-0.254 0.668-0.231 0.452-0.623 0.774-0.148 0.122-0.203 0.298-0.039 0.127-0.008 0.230 0.033 0.110 0.134 0.203 0.196 0.178 0.421 0.131 0.094-0.019 0.214-0.113 0.115-0.089 0.227-0.183 0.388-0.328 0.662-0.750 0.145-0.224 0.267-0.502 0.391-0.897 0.373-1.893-8e-3 -0.435-0.032-0.869-0.033-0.582-0.148-1.161-0.007-0.036 0.025-0.018 0.114 0.061 0.253 0.077 0.188 0.021 0.378 0.028 0.663 0.024 1.177-0.384 0.113-0.090 0.217-0.231 0.398-0.544 0.554-1.180 0.111-0.456 0.111-0.927-5.7e-4 -0.620-5.7e-4 -1.243 0-0.046 0.038-0.020 0.251 0.168 0.574 0.200 0.166 0.016 0.350-0.032 0.432-0.113 0.709-0.445 0.288-0.345 0.417-0.694 0.164-0.445 0.238-1.035 0.095-0.763-0.131-1.492-0.010-0.033 0.021-0.019 0.473 0.195 0.966 0.051 0.661 0.816 0.820 1.803 0.118 0.734 0.028 1.439-0.123 0.964-0.483 1.910-0.399 1.047-0.947 2.023-0.486 0.865-1.042 1.688-0.972 1.438-2.079 2.776a0.012 0.018 38.9 0 0-2e-3 0.023q0.008 0.006 0.022-0.01 0.056-0.065 0.116-0.126 1.518-1.531 2.806-3.260 1.587-2.129 2.624-4.437 0.831-1.849 1.230-3.838 0.351-1.748 0.305-3.508-0.072-2.801-1.157-5.394-0.523-1.249-1.290-2.366-0.371-0.540-0.809-1.029-0.380-0.424-0.868-0.806-0.284-0.222-0.577-0.354-0.030-0.217-0.059-0.434-0.067-0.518-0.208-1.021-0.226-0.813-0.656-1.533-0.147-0.247-0.317-0.473-0.800-1.066-1.998-1.682-0.002-0.001-0.028-0.010-0.035-0.012-0.025-0.061z" fill="#fbc22d"/>
  <path d="m31.184 9.599q-1.865-1.395-4.106-1.768-1.540-0.256-3.096-0.103-0.673 0.066-1.337 0.191-1.067 0.201-2.102 0.528-0.828 0.261-1.439 0.498-0.031 0.012-0.031-0.015 0.141-0.245-0.017-0.481-0.084-0.126-0.254-0.186-0.239-0.085-0.472-0.099-0.224-0.013-0.473 0.051-0.423 0.110-0.767 0.398-0.273 0.228-0.429 0.497-0.307 0.528-0.458 1.175-0.128 0.035-0.227 0.099-0.290-0.085-0.556-0.015-0.973 0.257-1.577 1.088-0.139 0.191-0.226 0.290-2.628 1.653-5.040 3.613-0.167-0.166-0.375-0.106-0.215 0.062-0.312 0.190-0.272 0.359-0.516 0.924-0.042 0.022-0.121 0.090-1.729 1.485-3.222 2.940a0.010 0.016 35.4 0 1-0.012 0.004l-0.007-0.001q0.849-1.636 1.967-3.256 1.385-2.006 3.056-3.858 1.328-1.471 2.724-2.765 1.812-1.678 3.820-3.116 2.012-1.440 4.230-2.540 1.255-0.622 2.578-1.086 0.689-0.241 1.395-0.425 1.179-0.306 2.396-0.383 1.124-0.071 2.174 0.167 0.533 0.121 1.044 0.379 0.266 0.134 0.488 0.292 0.836 0.596 1.259 1.539 0.222 0.496 0.335 1.052 0.052 0.256 0.082 0.563 0.097 0.993-0.045 2.031-0.118 0.858-0.325 1.595z" fill="#ba7d13"/>
  <path d="m33.528 5.936q0.293 0.132 0.577 0.354 0.488 0.381 0.868 0.806 0.437 0.488 0.809 1.029 0.767 1.116 1.290 2.366 1.085 2.592 1.157 5.394 0.045 1.760-0.305 3.508-0.399 1.988-1.230 3.838-1.037 2.307-2.624 4.437-1.288 1.728-2.806 3.260-0.060 0.061-0.116 0.126-0.014 0.016-0.022 0.01a0.012 0.018 38.9 0 1 2e-3 -0.023q1.106-1.338 2.079-2.776 0.555-0.822 1.042-1.688 0.548-0.976 0.947-2.023 0.360-0.946 0.483-1.910 0.090-0.705-0.028-1.439-0.159-0.986-0.820-1.803 0.654-0.230 0.929-0.853 0.207-0.467 8e-3 -0.933-0.039-0.092-0.110-0.147-0.099-0.076-0.232-0.126-0.149-0.055-0.289-0.021-0.073 0.018-0.125 0.083-0.079 0.100-0.128 0.231-0.074 0.200-8.55e-4 0.392 0.080 0.209-0.015 0.365-0.086 0.140-0.268 0.189-0.230 0.061-0.413-0.118-0.032-0.032-0.121-0.110-0.069-0.060-0.097-0.136-0.031-0.084-0.037-0.202-6e-3 -0.133 0.008-0.190 0.023-0.091 0.106-0.167 0.188-0.172 0.385-0.333 0.131-0.107 0.125-0.302-0.009-0.304-0.261-0.427-0.192-0.094-0.371-0.012-0.187 0.085-0.432 0.266-0.212 0.156-0.333 0.350-0.074 0.119-0.373 0.644-0.617-0.308-1.252-0.562-0.622-0.249-1.238-0.516 0.052-0.108 0.114-0.211 1.229-2.067 2.073-4.321 0.595-1.591 0.892-3.264 0.266-1.504 0.156-3.029z" fill="#ffe47e"/>
  <path d="m31.184 9.599q-0.007 0.093-0.051 0.193-0.785-0.341-1.640-0.412-0.984-0.081-1.960 0.072-1.497 0.236-2.905 0.795-1.063 0.421-2.071 0.962-1.926 1.033-3.652 2.376-3.513 2.735-6.098 6.362-1.301 1.826-2.235 3.865-0.627 1.370-0.983 2.836-0.193 0.799-0.260 1.645-0.068 0.878 0.073 1.730 0.098 0.593 0.347 1.141l-0.011 0.043a0.023 0.026 87.9 0 1-0.017 0.017q-1.099 0.300-2.266 0.404-0.871 0.077-1.712-0.019-0.928-0.107-1.705-0.471-1.062-0.497-1.605-1.521-0.332-0.625-0.471-1.352-0.145-0.762-0.136-1.539 0.008-0.765 0.150-1.629 0.044-0.270 0.106-0.560 0.319-1.482 0.917-2.951 0.483-1.186 1.006-2.180l0.007 0.001a0.010 0.016 35.4 0 0 0.012-0.004q1.492-1.455 3.222-2.940 0.079-0.068 0.121-0.090-0.354 0.916-0.431 1.896-0.046 0.590-0.012 1.181 0 0.002 0.011 0.130 0.009 0.102-0.001 0.205-0.045 0.434-0.002 0.920 0.002 0.025-0.017 0.01-0.170-0.130-0.342-0.104-0.161 0.024-0.202 0.049-0.488 0.301-0.775 0.798-0.250 0.433-0.334 0.927-0.055 0.324-0.049 0.652 0.003 0.221 0.069 0.555 0.162 0.827 0.265 1.208 0.122 0.455 0.155 0.926 0.016 0.235-0.027 0.465-0.021 0.113-0.079 0.192-0.072 0.100-0.157 0.145-0.255 0.138-0.520-2.85e-4 -0.043-0.022-0.057-0.069-0.028-0.093-0.043-0.182-0.013-0.084 0.014-0.158 0.056-0.145 0.167-0.255 0.036-0.036 0.112-0.066 0.105-0.041 0.186-0.116 0.108-0.101 0.135-0.237 0.041-0.208-0.123-0.384-0.179-0.190-0.432-0.130-0.164 0.039-0.310 0.127-0.131 0.078-0.253 0.214-0.250 0.279-0.361 0.635-0.076 0.244-0.052 0.490 0.024 0.254 0.128 0.485 0.110 0.244 0.307 0.408 0.329 0.272 0.784 0.300 0.434 0.026 0.835-0.201 0.406-0.230 0.558-0.648 0.072-0.202 0.102-0.414 0.140-1.000-0.208-1.944-0.128-0.348-0.210-0.749-0.007-0.038-0.008-0.086-5.703e-4 -0.040-0.003-0.088a0.008 0.008 0 0 1 0.012-0.008q0.194 0.097 0.401 0.140 0.217 0.045 0.419 0.013 0.295-0.046 0.553-0.228a0.024 0.024 0 0 1 0.037 0.013q0.064 0.252 0.161 0.513 0.120 0.323 0.149 0.665 0.008 0.105-0.003 0.239-0.011 0.119-0.024 0.238-2.851e-4 0.003-0.011 0.140-0.039 0.473-0.404 0.755-0.169 0.130-0.183 0.146-0.087 0.095-0.112 0.212-0.067 0.317 0.172 0.465 0.092 0.056 0.232 0.071 0.123 0.012 0.246 0.003 0.065-0.005 0.120-0.043 0.328-0.226 0.534-0.556 0.236-0.379 0.319-0.822 0.035-0.188 0.022-0.436-0.031-0.605-0.148-1.249-0.023-0.127-0.035-0.293-0.013-0.182-0.037-0.291-0.055-0.256-0.167-0.650-0.316-1.112-0.501-2.443-0.019-0.137-0.031-0.275-0.012-0.140 0.010-0.275 0.053-0.318 0.156-0.622 0.007-0.023 0.020-2e-3 0.210 0.352 0.567 0.515 0.170 0.077 0.367 0.127 0.204 0.051 0.392 0.033 0.281-0.026 0.520-0.199 0.306-0.221 0.447-0.557 0.165-0.395 0.229-0.903 0.043-0.343 0.104-0.684 0.043-0.242 0.065-0.414 0.027-0.208 0.053-0.417 0.047-0.374 0.171-0.729 0.018-0.054 0.051-0.104 0.029-0.045 0.063-0.098a0.019 0.019 35.4 0 1 0.027-0.004q0.025 0.020 0.043 0.055 0.303 0.625 1.001 0.722 0.226 0.031 0.430-0.027 0.140-0.040 0.264-0.109 0.136-0.075 0.222-0.186 0.254-0.328 0.416-0.787 0.118-0.333 0.256-0.968 5.7e-4 -2e-3 0.054-0.273 0.066-0.332 0.175-0.652 0.065-0.192 0.192-0.450 0.108-0.220 0.218-0.439 0.012-0.024 0.024 0 0.305 0.606 0.930 0.762 0.225 0.056 0.415 0.023 0.223-0.038 0.391-0.176 0.193-0.158 0.295-0.331 0.572-0.968 0.658-2.131 8.55e-4 -0.014 0.009-0.002 0.179 0.255 0.432 0.424 0.196 0.132 0.408 0.177 0.225 0.049 0.454 0.014 0.215-0.032 0.427-0.115 0.214-0.083 0.376-0.223 0.324-0.283 0.473-0.697 0.033-0.094 0.035-0.169 0.001-0.088-0.023-0.175-0.057-0.200-0.216-0.291-0.147-0.084-0.330-0.044-0.255 0.056-0.362 0.318-2.85e-4 0.001-0.023 0.090-0.013 0.052-0.051 0.094-0.061 0.069-0.126 0.134-0.055 0.054-0.120 0.072-0.114 0.029-0.249 0.029a0.044 0.044 0 0 1-0.031-0.013q-0.080-0.080-0.167-0.166-0.001-2e-3 -0.043-0.041-0.192-0.181-0.132-0.451 0.325-0.117 0.627-0.259 0.351 0.043 0.559-0.250 2.85e-4 0.028 0.031 0.015 0.611-0.237 1.439-0.498 1.035-0.326 2.102-0.528 0.664-0.125 1.337-0.191 1.555-0.153 3.096 0.103 2.240 0.372 4.106 1.768z" fill="#d99a1d"/>
  <path d="m19.069 8.930q-0.207 0.293-0.559 0.250-0.069-0.011-0.273-0.014-0.085-0.001-0.131 0.045-0.035 0.035-0.036 0.037-0.096 0.082-0.185 0.191-0.059 0.269 0.132 0.451 0.042 0.039 0.043 0.041 0.086 0.086 0.167 0.166a0.044 0.044 0 0 0 0.031 0.013q0.135 0 0.249-0.029 0.065-0.017 0.120-0.072 0.065-0.065 0.126-0.134 0.037-0.042 0.051-0.094 0.023-0.088 0.023-0.090 0.106-0.262 0.362-0.318 0.183-0.040 0.330 0.044 0.158 0.091 0.216 0.291 0.024 0.086 0.023 0.175-0.001 0.074-0.035 0.169-0.148 0.414-0.473 0.697-0.161 0.140-0.376 0.223-0.212 0.082-0.427 0.115-0.228 0.034-0.454-0.014-0.211-0.045-0.408-0.177-0.252-0.169-0.432-0.424-0.008-0.011-0.009 0.002-0.086 1.162-0.658 2.131-0.102 0.172-0.295 0.331-0.167 0.137-0.391 0.176-0.189 0.032-0.415-0.023-0.625-0.155-0.930-0.762-0.012-0.024-0.024 0-0.109 0.218-0.218 0.439-0.126 0.257-0.192 0.450-0.109 0.320-0.175 0.652-0.053 0.271-0.054 0.273-0.138 0.635-0.256 0.968-0.162 0.459-0.416 0.787-0.086 0.110-0.222 0.186-0.124 0.068-0.264 0.109-0.204 0.058-0.430 0.027-0.697-0.097-1.001-0.722-0.017-0.035-0.043-0.055a0.019 0.019 35.4 0 0-0.027 0.004q-0.034 0.052-0.063 0.098-0.032 0.050-0.051 0.104-0.124 0.354-0.171 0.729-0.026 0.208-0.053 0.417-0.022 0.171-0.065 0.414-0.061 0.340-0.104 0.684-0.063 0.508-0.229 0.903-0.141 0.336-0.447 0.557-0.238 0.172-0.520 0.199-0.187 0.017-0.392-0.033-0.197-0.049-0.367-0.127-0.357-0.162-0.567-0.515-0.012-0.021-0.020 2e-3 -0.102 0.303-0.156 0.622-0.022 0.134-0.010 0.275 0.012 0.138 0.031 0.275 0.185 1.331 0.501 2.443 0.112 0.394 0.167 0.650 0.023 0.108 0.037 0.291 0.012 0.165 0.035 0.293 0.116 0.643 0.148 1.249 0.012 0.247-0.022 0.436-0.083 0.442-0.319 0.822-0.206 0.330-0.534 0.556-0.055 0.037-0.120 0.043-0.123 0.009-0.246-0.003-0.140-0.014-0.232-0.071-0.240-0.148-0.172-0.465 0.025-0.117 0.112-0.212 0.014-0.015 0.183-0.146 0.364-0.281 0.404-0.755 0.011-0.137 0.011-0.140 0.012-0.118 0.024-0.238 0.012-0.133 0.003-0.239-0.028-0.342-0.149-0.665-0.097-0.261-0.161-0.513a0.024 0.024 0 0 0-0.037-0.013q-0.257 0.181-0.553 0.228-0.202 0.031-0.419-0.013-0.206-0.042-0.401-0.140a0.008 0.008 0 0 0-0.012 0.008q0.002 0.048 0.003 0.088 5.703e-4 0.048 0.008 0.086 0.081 0.401 0.210 0.749 0.348 0.943 0.208 1.944-0.029 0.212-0.102 0.414-0.151 0.418-0.558 0.648-0.400 0.227-0.835 0.201-0.455-0.027-0.784-0.300-0.197-0.163-0.307-0.408-0.104-0.231-0.128-0.485-0.023-0.246 0.052-0.490 0.110-0.355 0.361-0.635 0.121-0.135 0.253-0.214 0.146-0.088 0.310-0.127 0.253-0.060 0.432 0.130 0.165 0.176 0.123 0.384-0.027 0.136-0.135 0.237-0.080 0.075-0.186 0.116-0.076 0.029-0.112 0.066-0.110 0.110-0.167 0.255-0.028 0.074-0.014 0.158 0.014 0.088 0.043 0.182 0.014 0.047 0.057 0.069 0.265 0.138 0.520 2.85e-4 0.084-0.045 0.157-0.145 0.057-0.079 0.079-0.192 0.043-0.229 0.027-0.465-0.032-0.470-0.155-0.926-0.102-0.381-0.265-1.208-0.065-0.333-0.069-0.555-0.005-0.327 0.049-0.652 0.084-0.494 0.334-0.927 0.287-0.496 0.775-0.798 0.040-0.025 0.202-0.049 0.171-0.025 0.342 0.104 0.020 0.015 0.017-0.01-0.043-0.485 0.002-0.920 0.010-0.103 0.001-0.205-0.011-0.128-0.011-0.130-0.033-0.591 0.012-1.181 0.076-0.980 0.431-1.896 0.243-0.565 0.516-0.924 0.097-0.128 0.312-0.190 0.207-0.060 0.375 0.106 0.099 0.107 0.156 0.268 0.041 0.118 0.009 0.226-0.016 0.055-0.111 0.185-0.388 0.528-0.569 1.162-0.003 0.013 0.005 0.003 0.353-0.372 0.746-0.702 0.117-0.098 0.214-0.128 0.130-0.041 0.256-0.021 0.190 0.030 0.355 0.168 0.051 0.043 0.072 0.088 0.021 0.049 0.028 0.113 0.001 0.014 0.014 0.025 0.011 0.009 0.013-0.006 0.098-0.644 0.256-1.138 0.125-0.391 0.390-0.821 0.341-0.555 0.843-0.892 0.070-0.047 0.165-0.093 0.085-0.041 0.171-0.082 0.256-0.120 0.531-0.186 0.255-0.061 0.556-0.005 0.145 0.027 0.236 0.089a0.009 0.009 24.6 0 0 0.015-0.005q0.222-0.865 0.292-1.059 0.057-0.159 0.390-0.803 0.087-0.098 0.226-0.290 0.603-0.831 1.577-1.088 0.265-0.070 0.556 0.015l0.166 0.090a0.014 0.013 20.9 0 0 0.021-0.008l0.039-0.181q0.150-0.647 0.458-1.175 0.156-0.268 0.429-0.497 0.343-0.287 0.767-0.398 0.248-0.065 0.473-0.051 0.232 0.013 0.472 0.099 0.169 0.060 0.254 0.186 0.158 0.235 0.017 0.481zm-3.636 3.024q0.074 0.055 0.136 0.055a0.024 0.026 17.9 0 0 0.021-0.012q0.193-0.310 0.306-0.657a0.015 0.013 22.1 0 0-0.008-0.016l-0.108-0.053q-0.017-0.008-0.026-0.008-0.276 0.007-0.429 0.233-0.058 0.086-0.045 0.193 0.019 0.166 0.153 0.265zm-3.199 3.345q0.105 0.059 0.260 0.041a0.063 0.063 0 0 0 0.048-0.032q0.223-0.396 0.285-0.874a0.032 0.031 4.9 0 0-0.030-0.036q-0.176-0.006-0.370 0.009-0.191 0.016-0.317 0.133-0.124 0.115-0.138 0.288-0.012 0.162 0.083 0.295 0.088 0.122 0.178 0.172zm-3.324 3.313q0.055 0.045 0.124 0.059 0.063 0.011 0.066 0.012 0.038 0.009 0.077 0.016 0.065 0.011 0.105-0.017 0.050-0.036 0.085-0.109 0.095-0.197 0.122-0.327 0.073-0.362 0.126-0.728 0.016-0.114 0.041-0.234 0.022-0.108 0.045-0.234 0.002-0.014-0.006-0.002-0.056 0.071-0.112 0.127-0.048 0.048-0.139 0.094-0.420 0.209-0.619 0.644-0.060 0.132-0.078 0.273-0.017 0.133 0.019 0.230 0.042 0.113 0.141 0.195zm-2.118 4.174q0.130 0.012 0.216-0.091 0.058-0.069 0.087-0.200 0.061-0.272-0.007-0.549-0.023-0.096-0.062-0.399a0.045 0.052 50.8 0 1 0.004-0.027q0.047-0.100 0.065-0.179 0.024-0.107-0.055-0.174a0.009 0.010 30.2 0 0-0.015 0.004q-0.072 0.190-0.209 0.268-0.158 0.089-0.260 0.203-0.244 0.272-0.208 0.631 0.010 0.109 0.065 0.202 0.054 0.094 0.130 0.173 0.121 0.126 0.249 0.138z" fill="#fec007"/>
  <path d="m18.510 9.180q-0.301 0.142-0.627 0.259 0.088-0.108 0.185-0.191 0.001-0.001 0.036-0.037 0.045-0.046 0.131-0.045 0.204 0.002 0.273 0.014z" fill="#ba7d13"/>
  <path d="m16.197 10.286-0.039 0.181a0.014 0.013 20.9 0 1-0.021 0.008l-0.166-0.090q0.099-0.063 0.227-0.099z" fill="#d89a1c"/>
  <path d="m15.433 11.954q-0.133-0.098-0.153-0.265-0.012-0.106 0.045-0.193 0.153-0.226 0.429-0.233 0.009-2.86e-4 0.026 0.008l0.108 0.053a0.015 0.013 22.1 0 1 0.008 0.016q-0.113 0.347-0.306 0.657a0.024 0.026 17.9 0 1-0.021 0.012q-0.062-2.85e-4 -0.136-0.055z" fill="#d89a1c"/>
  <path d="m13.610 11.749q-0.332 0.644-0.390 0.803-0.070 0.193-0.292 1.059a0.009 0.009 24.6 0 1-0.015 0.005q-0.090-0.062-0.236-0.089-0.300-0.055-0.556 0.005-0.275 0.065-0.531 0.186-0.086 0.040-0.171 0.082-0.094 0.045-0.165 0.093-0.501 0.337-0.843 0.892-0.264 0.430-0.390 0.821-0.158 0.494-0.256 1.138-0.002 0.015-0.013 0.006-0.013-0.011-0.014-0.025-0.006-0.063-0.028-0.113-0.020-0.045-0.072-0.088-0.165-0.138-0.355-0.168-0.125-0.019-0.256 0.021-0.096 0.030-0.214 0.128-0.393 0.329-0.746 0.702-0.009 0.010-0.005-0.003 0.181-0.633 0.569-1.162 0.095-0.130 0.111-0.185 0.031-0.108-0.009-0.226-0.057-0.161-0.156-0.268 2.411-1.959 5.040-3.613z" fill="#d99a1d"/>
  <path d="m12.055 15.127q-0.096-0.133-0.083-0.295 0.013-0.173 0.138-0.288 0.126-0.117 0.317-0.133 0.194-0.016 0.370-0.009a0.032 0.031 4.9 0 1 0.030 0.036q-0.062 0.478-0.285 0.874a0.063 0.063 0 0 1-0.048 0.032q-0.154 0.017-0.260-0.041-0.089-0.050-0.178-0.172z" fill="#d89a1c"/>
  <path d="m34.830 19.402q-0.493 0.143-0.966-0.051-0.031-0.013-0.021 0.019 0.226 0.729 0.131 1.492-0.073 0.589-0.238 1.035-0.128 0.349-0.417 0.694-0.276 0.332-0.709 0.445-0.184 0.048-0.350 0.032-0.323-0.031-0.574-0.200-0.038-0.025-0.038 0.020 0 0.623 5.7e-4 1.243 5.7e-4 0.470-0.111 0.927-0.155 0.636-0.554 1.180-0.103 0.141-0.217 0.231-0.514 0.408-1.177 0.384-0.189-0.006-0.378-0.028-0.139-0.015-0.253-0.077-0.032-0.017-0.025 0.018 0.115 0.579 0.148 1.161 0.024 0.434 0.032 0.869 0.017 0.996-0.373 1.893-0.121 0.278-0.267 0.502-0.273 0.422-0.662 0.750-0.112 0.094-0.227 0.183-0.120 0.093-0.214 0.113-0.225 0.047-0.421-0.131-0.101-0.092-0.134-0.203-0.031-0.103 0.008-0.230 0.054-0.175 0.203-0.298 0.391-0.322 0.623-0.774 0.163-0.320 0.254-0.668 0.132-0.510 0.149-1.047 5.7e-4 -0.021-0.012-0.004-0.306 0.390-0.732 0.617-0.258 0.137-0.534 0.189-0.677 0.128-1.299-0.231-0.218-0.126-0.363-0.315a0.013 0.013 0 0 0-0.023 0.003q-0.445 1.043-0.469 2.159-0.001 0.078-0.012 0.133-0.010 0.057-0.057 0.118-0.218 0.288-0.572 0.425-0.362 0.139-0.734 0.087-0.791-0.111-1.263-0.749-0.017-0.023-0.025 0.004-0.084 0.266-0.140 0.543-0.031 0.157-0.040 0.344-0.008 0.173-0.013 0.347-0.009 0.331-0.072 0.656-0.088 0.457-0.368 0.807-0.180 0.225-0.402 0.336-0.240 0.120-0.523 0.132-0.229 0.009-0.454-0.027-0.179-0.029-0.333-0.114-0.206-0.112-0.382-0.272-0.024-0.022-0.021 0.010 0.008 0.103-0.004 0.185-0.011 0.074-0.011 0.075-0.051 0.408-0.153 0.673-0.112 0.289-0.358 0.493-0.080 0.066-0.477 0.311-0.790 0.487-1.644 0.861-1.152-0.061-2.293-0.273 1.845-0.458 3.538-1.315 0.005-0.002 0.219-0.109 0.194-0.096 0.239-0.138 0.058-0.054 0.088-0.153 0.080-0.258 0.095-0.504 0.017-0.297 0.020-0.319 0.052-0.399 0.179-0.818 0.155-0.514 0.435-0.933 0.439-0.656 1.211-0.834 0.215-0.049 0.364 0.108 0.165 0.174 0.184 0.403 0.010 0.125-0.047 0.226-0.061 0.108-0.165 0.175-0.021 0.014-0.207 0.086-0.258 0.099-0.419 0.335-0.188 0.275-0.122 0.606 0.059 0.296 0.356 0.351 0.077 0.014 0.155 0.023 0.001 0 0.084 0.016 0.082 0.016 0.150-0.029 0.099-0.067 0.160-0.171 0.044-0.076 0.075-0.216 0.063-0.288 0.057-0.615-0.006-0.371 0.057-0.763 0.047-0.287 0.114-0.558 0.142-0.578 0.433-1.103 0.133-0.241 0.344-0.489 0.509-0.599 1.268-0.755 0.180-0.037 0.309 0.046 0.080 0.051 0.154 0.178 0.067 0.115 0.089 0.222 0.050 0.238-0.155 0.387-0.137 0.099-0.265 0.126-0.116 0.024-0.201 0.083-0.066 0.047-0.151 0.148-0.115 0.137-0.153 0.302-0.055 0.238 0.085 0.455 0.137 0.211 0.391 0.238 0.262 0.027 0.508-0.076a0.043 0.043 0 0 0 0.025-0.035q0.023-0.277 0.069-0.547 0.043-0.260 0.104-0.540 0.177-0.821 0.543-1.577 0.099-0.204 0.210-0.381 0.106-0.169 0.243-0.362 0.195-0.275 0.436-0.482 0.158-0.136 0.258-0.198 0.141-0.087 0.304-0.126 0.129-0.030 0.238-0.038 0.136-0.009 0.242 0.032 0.325 0.130 0.285 0.511-0.029 0.282-0.268 0.382-0.042 0.017-0.147 0.024-0.241 0.015-0.353 0.233-0.116 0.226 0.004 0.423 0.062 0.100 0.136 0.168 0.077 0.071 0.193 0.110 0.209 0.070 0.394 0.032 0.222-0.045 0.325-0.114 0.248-0.165 0.406-0.498 0.143-0.304 0.165-0.689 0.014-0.263 4e-3 -1.247-0.003-0.292 0.060-0.577 0.014-0.063 0.006-0.128-0.051-0.415-0.060-0.840-0.013-0.627 0.122-1.239 0.201-0.910 0.666-1.717 0.299-0.519 0.682-0.979 0.092-0.111 0.181-0.155 0.206-0.103 0.436-0.036 0.076 0.022 0.125 0.082 0.182 0.224 0.094 0.527-0.018 0.065-0.100 0.163-0.867 1.047-1.102 2.438-2.85e-4 0.001-0.012 0.063-0.013 0.066-0.011 0.147 2.85e-4 0.019 0.015 0.007 0.255-0.193 0.540-0.325 0.143-0.066 0.250-0.062 0.139 0.005 0.255 0.084 0.089 0.061 0.130 0.144 0.045 0.092 0.033 0.201-0.036 0.331-0.307 0.519-0.049 0.034-0.051 0.035-0.236 0.174-0.393 0.424-0.094 0.150-0.122 0.325-0.047 0.287 0.158 0.444 0.067 0.051 0.140 0.088 0.081 0.041 0.162 0.044 0.224 0.008 0.447-0.073 0.143-0.052 0.244-0.153 0.151-0.152 0.235-0.357 0.151-0.370 0.195-0.763 0.017-0.153 0.014-0.569-0.005-0.800 0.031-1.375 0.046-0.710 0.394-1.353 0.156-0.288 0.326-0.465 0.358-0.373 0.883-0.476 0.372-0.073 0.562 0.194 0.088 0.124 0.083 0.270-0.005 0.158-0.099 0.282-0.107 0.141-0.292 0.185-0.140 0.034-0.175 0.050-0.182 0.084-0.323 0.248-0.035 0.040-0.048 0.083-0.024 0.077-0.028 0.085-0.022 0.041-0.049 0.076-0.034 0.045-0.014 0.098 0.051 0.136 0.135 0.249 0.033 0.045 0.082 0.069 0.037 0.017 0.100 0.045 0.175 0.076 0.307-0.031 0.128-0.105 0.203-0.253 0.493-0.967 0.263-2.018-0.033-0.153-0.107-0.317-0.069-0.153-0.144-0.304-0.059-0.119-0.085-0.326-0.045-0.361 0.030-0.646 0.035-0.133 0.150-0.406 0.298-0.525 0.373-0.644 0.120-0.193 0.333-0.350 0.245-0.180 0.432-0.266 0.179-0.081 0.371 0.012 0.251 0.123 0.261 0.427 6e-3 0.194-0.125 0.302-0.197 0.161-0.385 0.333-0.082 0.076-0.106 0.167-0.014 0.057-0.008 0.190 0.005 0.118 0.037 0.202 0.028 0.075 0.097 0.136 0.088 0.077 0.121 0.110 0.182 0.179 0.413 0.118 0.182-0.048 0.268-0.189 0.095-0.156 0.015-0.365-0.073-0.191 8.55e-4 -0.392 0.048-0.130 0.128-0.231 0.051-0.065 0.125-0.083 0.139-0.034 0.289 0.021 0.132 0.049 0.232 0.126 0.071 0.055 0.110 0.147 0.199 0.465-8e-3 0.933-0.275 0.622-0.929 0.853z" fill="#fdd400"/>
  <path d="m30.290 16.763q0.615 0.266 1.238 0.516 0.634 0.254 1.252 0.562-0.115 0.272-0.150 0.406-0.075 0.285-0.030 0.646 0.026 0.207 0.085 0.326 0.075 0.151 0.144 0.304 0.073 0.164 0.107 0.317 0.230 1.050-0.263 2.018-0.075 0.147-0.203 0.253-0.131 0.108-0.307 0.031-0.063-0.027-0.100-0.045-0.049-0.023-0.082-0.069-0.083-0.113-0.135-0.249-0.020-0.053 0.014-0.098 0.026-0.034 0.049-0.076 0.004-0.008 0.028-0.085 0.013-0.043 0.048-0.083 0.140-0.163 0.323-0.248 0.034-0.016 0.175-0.050 0.184-0.044 0.292-0.185 0.094-0.123 0.099-0.282 0.004-0.145-0.083-0.270-0.190-0.268-0.562-0.194-0.524 0.103-0.883 0.476-0.169 0.177-0.326 0.465-0.348 0.642-0.394 1.353-0.037 0.575-0.031 1.375 0.002 0.416-0.014 0.569-0.043 0.393-0.195 0.763-0.083 0.205-0.235 0.357-0.101 0.101-0.244 0.153-0.223 0.081-0.447 0.073-0.080-0.003-0.162-0.044-0.073-0.037-0.140-0.088-0.206-0.156-0.158-0.444 0.028-0.175 0.122-0.325 0.156-0.249 0.393-0.424 0.001-0.001 0.051-0.035 0.271-0.187 0.307-0.519 0.011-0.108-0.033-0.201-0.040-0.083-0.130-0.144-0.115-0.079-0.255-0.084-0.106-0.003-0.250 0.062-0.284 0.131-0.540 0.325-0.015 0.011-0.015-0.007-2e-3 -0.081 0.011-0.147 0.012-0.062 0.012-0.063 0.235-1.390 1.102-2.438 0.081-0.098 0.100-0.163 0.087-0.302-0.094-0.527-0.049-0.060-0.125-0.082-0.230-0.067-0.436 0.036-0.088 0.044-0.181 0.155-0.382 0.460-0.682 0.979-0.465 0.807-0.666 1.717-0.135 0.612-0.122 1.239 0.009 0.425 0.060 0.840 8e-3 0.064-0.006 0.128-0.063 0.285-0.060 0.577 0.010 0.984-4e-3 1.247-0.021 0.385-0.165 0.689-0.157 0.333-0.406 0.498-0.102 0.068-0.325 0.114-0.185 0.038-0.394-0.032-0.115-0.038-0.193-0.110-0.074-0.068-0.136-0.168-0.121-0.196-0.004-0.423 0.112-0.217 0.353-0.233 0.105-0.007 0.147-0.024 0.238-0.100 0.268-0.382 0.040-0.380-0.285-0.511-0.105-0.042-0.242-0.032-0.108 0.007-0.238 0.038-0.163 0.038-0.304 0.126-0.099 0.061-0.258 0.198-0.240 0.207-0.436 0.482-0.136 0.192-0.243 0.362-0.111 0.177-0.210 0.381-0.366 0.755-0.543 1.577-0.060 0.280-0.104 0.540-0.045 0.269-0.069 0.547a0.043 0.043 0 0 1-0.025 0.035q-0.245 0.104-0.508 0.076-0.254-0.027-0.391-0.238-0.141-0.217-0.085-0.455 0.038-0.164 0.153-0.302 0.084-0.101 0.151-0.148 0.084-0.059 0.201-0.083 0.128-0.026 0.265-0.126 0.205-0.149 0.155-0.387-0.022-0.107-0.089-0.222-0.073-0.126-0.154-0.178-0.129-0.083-0.309-0.046-0.759 0.156-1.268 0.755-0.210 0.247-0.344 0.489-0.290 0.524-0.433 1.103-0.066 0.270-0.114 0.558-0.064 0.391-0.057 0.763 0.005 0.326-0.057 0.615-0.030 0.139-0.075 0.216-0.060 0.104-0.160 0.171-0.068 0.046-0.150 0.029-0.082-0.016-0.084-0.016-0.078-0.009-0.155-0.023-0.297-0.054-0.356-0.351-0.065-0.331 0.122-0.606 0.161-0.235 0.419-0.335 0.185-0.072 0.207-0.086 0.104-0.067 0.165-0.175 0.057-0.100 0.047-0.226-0.018-0.228-0.184-0.403-0.149-0.157-0.364-0.108-0.771 0.178-1.211 0.834-0.280 0.418-0.435 0.933-0.126 0.419-0.179 0.818-0.002 0.022-0.020 0.319-0.014 0.246-0.095 0.504-0.030 0.098-0.088 0.153-0.044 0.041-0.239 0.138-0.213 0.106-0.219 0.109-1.693 0.857-3.538 1.315-0.761-0.124-1.511-0.307-2.664-0.649-5.141-1.823-0.879-0.416-1.445-0.731 0.009 0.005 0.013-5.7e-4a0.008 0.016 28.7 0 1 0.011-8e-3q0.225 0.016 0.452 0.016 0.891 0.001 1.774-0.119 1.304-0.178 2.757-0.645 1.817-0.584 3.521-1.444 2.231-1.126 4.271-2.572 3.940-2.791 7.179-6.413 2.350-2.628 4.161-5.612z" fill="#fbc22d"/>
  <path d="m8.910 18.613q-0.099-0.081-0.141-0.195-0.036-0.097-0.019-0.230 0.017-0.141 0.078-0.273 0.199-0.435 0.619-0.644 0.090-0.045 0.139-0.094 0.055-0.056 0.112-0.127 0.009-0.011 0.006 0.002-0.023 0.126-0.045 0.234-0.024 0.120-0.041 0.234-0.052 0.366-0.126 0.728-0.026 0.129-0.122 0.327-0.035 0.072-0.085 0.109-0.040 0.029-0.105 0.017-0.038-0.007-0.077-0.016-0.002-8.55e-4 -0.066-0.012-0.069-0.013-0.124-0.059z" fill="#d89a1c"/>
  <path d="m6.541 22.649q-0.075-0.078-0.130-0.173-0.054-0.093-0.065-0.202-0.035-0.359 0.208-0.631 0.102-0.113 0.260-0.203 0.136-0.077 0.209-0.268a0.009 0.010 30.2 0 1 0.015-0.004q0.079 0.067 0.055 0.174-0.017 0.079-0.065 0.179a0.045 0.052 50.8 0 0-0.004 0.027q0.038 0.303 0.062 0.399 0.069 0.277 0.007 0.549-0.029 0.130-0.087 0.200-0.086 0.104-0.216 0.091-0.128-0.012-0.249-0.138z" fill="#d89a1c"/>
  <path d="m0.630 30.159q0.069 0.055 0.106 0.135 0.035 0.078 0.036 0.080 1.122 2.111 3.406 2.828 0.942 0.295 1.967 0.360 0.566 0.315 1.445 0.731 2.477 1.173 5.141 1.823 0.749 0.182 1.511 0.307 1.140 0.211 2.293 0.273 0.100 0.016 0.280 0.024 1.484 0.069 2.893-0.061 1.919-0.179 3.755-0.757 0.270-0.085 0.540-0.182 2.992-1.074 5.494-3.110 0.408-0.332 0.524-0.433 0.012-0.011 0.022-0.010 0.016 5.7e-4 0.020 0.023-1.406 1.330-2.965 2.557-1.676 1.319-3.484 2.391-1.886 1.118-3.952 1.854-1.554 0.554-3.128 0.794-0.960 0.146-2.019 0.171h-0.406q-0.907-0.026-1.716-0.142-1.971-0.282-3.803-1.144-2.222-1.046-4.057-2.820-1.561-1.510-2.712-3.353-0.698-1.118-1.194-2.340z" fill="#e5a91f"/>
 </g>
</svg>
