<?xml version="1.0" encoding="UTF-8"?>
<svg version="1.1" viewBox="0 0 40 40" xmlns="http://www.w3.org/2000/svg">
 <g transform="matrix(.02851399 0 0 .02851402 -.03364876 .01171812)" fill="none" stroke-width="2">
  <path d="m1061.5 24.79q-0.35 1.71 0.91 2.15 0.91 0.32 1.01 0.37 42 21.6 70.08 58.99 5.96 7.94 11.13 16.61 15.08 25.27 23.03 53.79 4.92 17.64 7.3 35.81 1 7.62 2.08 15.24" stroke="#fccb17" vector-effect="non-scaling-stroke"/>
  <path d="m1177.04 207.75q3.86 53.48-5.5 106.26-10.4 58.68-31.3 114.48-29.6 79.02-72.73 151.54-2.16 3.64-4.01 7.43" stroke="#fedc3f" vector-effect="non-scaling-stroke"/>
  <path d="m1063.5 587.46q-63.51 104.66-145.94 196.85-113.58 127.04-251.79 224.94-71.55 50.69-149.82 90.21-59.76 30.17-123.49 50.66-50.95 16.38-96.71 22.63-30.98 4.23-62.25 4.18-7.94-0.01-15.86-0.59a0.58 0.29-61.3 0 0-0.41 0.28q-0.14 0.2-0.49 0.02" stroke="#fccb17" vector-effect="non-scaling-stroke"/>
  <path d="m216.74 1176.64q-35.93-2.27-68.99-12.64-80.1-25.13-119.46-99.19-0.04-0.08-1.28-2.82-1.27-2.79-3.72-4.74" stroke="#f1bf10" vector-effect="non-scaling-stroke"/>
  <path d="m141.5 680.21q-18.37 34.86-35.31 76.48-20.98 51.52-32.17 103.51-2.19 10.16-3.74 19.65-4.98 30.3-5.28 57.15-0.31 27.25 4.79 53.99 4.87 25.51 16.52 47.45 19.07 35.89 56.32 53.35 27.23 12.76 59.81 16.52 29.5 3.41 60.06 0.69 40.91-3.64 79.47-14.18a0.92 0.81-2.1 0 0 0.63-0.6l0.4-1.51" stroke="#ebb70f" vector-effect="non-scaling-stroke"/>
  <path d="m1093.04 343q1.52-3.52 1.79-6.8" stroke="#ebb70f" vector-effect="non-scaling-stroke"/>
  <path d="m1094.83 336.2q7.27-25.84 11.42-55.95 5.02-36.41 1.59-71.26-1.06-10.76-2.89-19.77-3.97-19.51-11.76-36.91-14.81-33.06-44.16-53.98-7.81-5.57-17.14-10.27-17.94-9.06-36.64-13.31-36.81-8.37-76.26-5.87-42.66 2.7-84.04 13.44-24.78 6.44-48.95 14.92-46.39 16.26-90.43 38.09-77.78 38.56-148.36 89.09-70.43 50.43-133.98 109.3-48.96 45.36-95.54 96.97-58.61 64.93-107.19 135.31-39.22 56.82-69 114.21" stroke="#dca90a" vector-effect="non-scaling-stroke"/>
  <path d="m1094.83 336.2q-65.43-48.93-144.02-62.01-54.03-9-108.58-3.62-23.61 2.33-46.92 6.73-37.43 7.06-73.75 18.52-29.06 9.16-50.5 17.49-1.09 0.43-1.1-0.56" stroke="#ca8c18" vector-effect="non-scaling-stroke"/>
  <path d="m669.96 312.75q4.95-8.62-0.6-16.89-2.97-4.42-8.92-6.55-8.41-3-16.57-3.48-7.86-0.47-16.59 1.81-14.86 3.88-26.9 13.98-9.58 8.03-15.07 17.44-10.8 18.53-16.09 41.24" stroke="#dc9f0d" vector-effect="non-scaling-stroke"/>
  <path d="m569.22 360.3q-4.49 1.26-7.97 3.49" stroke="#c98c18" vector-effect="non-scaling-stroke"/>
  <path d="m561.25 363.79q-10.18-3-19.5-0.54-34.15 9.03-55.31 38.19-4.89 6.73-7.95 10.19" stroke="#dc9f0d" vector-effect="non-scaling-stroke"/>
  <path d="m478.49 411.63q-92.2 58-176.78 126.71" stroke="#ca8c18" vector-effect="non-scaling-stroke"/>
  <path d="m301.71 538.34q-5.89-5.84-13.18-3.72-7.56 2.19-10.97 6.69-9.55 12.6-18.1 32.44" stroke="#dc9f0d" vector-effect="non-scaling-stroke"/>
  <path d="m259.46 573.75q-1.48 0.79-4.27 3.19-60.66 52.08-113.01 103.14a0.58 0.37-54.6 0 1-0.43 0.17l-0.25-0.04" stroke="#ca8c18" vector-effect="non-scaling-stroke"/>
  <path d="m259.46 573.75q-12.45 32.13-15.15 66.5-1.62 20.71-0.45 41.44 0 0.08 0.42 4.59 0.34 3.6-0.04 7.22-1.61 15.24-0.08 32.27 0.08 0.89-0.63 0.35-5.99-4.58-12-3.67-5.67 0.86-7.09 1.74-17.13 10.59-27.21 28.02-8.78 15.2-11.74 32.54-1.94 11.39-1.74 22.87 0.14 7.78 2.44 19.48 5.7 29.01 9.31 42.4 4.31 15.99 5.45 32.5 0.58 8.26-0.96 16.31-0.76 3.97-2.78 6.76-2.54 3.51-5.52 5.12-8.96 4.84-18.26-0.01-1.53-0.8-2.03-2.45-1-3.27-1.52-6.39-0.49-2.96 0.52-5.56 1.98-5.09 5.87-8.95 1.28-1.28 3.95-2.32 3.7-1.45 6.54-4.1 3.81-3.55 4.76-8.34 1.46-7.32-4.34-13.5-6.28-6.69-15.18-4.57-5.76 1.37-10.9 4.46-4.61 2.77-8.88 7.52-8.8 9.8-12.69 22.28-2.67 8.57-1.84 17.2 0.87 8.92 4.52 17.04 3.86 8.59 10.77 14.32 11.55 9.57 27.53 10.54 15.24 0.92 29.3-7.05 14.24-8.07 19.57-22.76 2.56-7.09 3.61-14.55 4.93-35.1-7.3-68.19-4.52-12.21-7.39-26.3-0.27-1.35-0.29-3.05-0.02-1.41-0.11-3.1a0.3 0.3-78.6 0 1 0.43-0.29q6.83 3.41 14.08 4.91 7.62 1.58 14.72 0.46 10.36-1.63 19.4-8a0.85 0.85-24.5 0 1 1.31 0.49q2.26 8.86 5.68 18.02 4.24 11.35 5.23 23.35 0.31 3.71-0.13 8.39-0.4 4.18-0.85 8.35-0.01 0.11-0.41 4.92-1.38 16.6-14.17 26.48-5.93 4.59-6.44 5.15-3.06 3.36-3.94 7.47-2.38 11.12 6.05 16.32 3.24 1.99 8.17 2.49 4.32 0.43 8.66 0.11 2.3-0.18 4.24-1.51 11.53-7.93 18.76-19.53 8.29-13.32 11.21-28.83 1.25-6.61 0.8-15.3-1.1-21.23-5.2-43.81-0.81-4.47-1.25-10.29-0.49-6.41-1.31-10.22-1.94-8.98-5.88-22.8-11.11-39-17.6-85.68-0.67-4.83-1.1-9.67-0.43-4.93 0.36-9.65 1.88-11.16 5.49-21.82 0.28-0.82 0.72-0.07 7.37 12.37 19.92 18.07 5.99 2.73 12.9 4.46 7.18 1.8 13.75 1.17 9.87-0.94 18.25-7 10.74-7.77 15.69-19.56 5.81-13.86 8.04-31.69 1.51-12.05 3.66-24 1.53-8.52 2.31-14.55 0.95-7.32 1.89-14.63 1.68-13.12 6.03-25.57 0.66-1.9 1.8-3.67 1.03-1.61 2.24-3.45a0.68 0.67-54.6 0 1 0.97-0.17q0.91 0.71 1.51 1.94 10.66 21.93 35.11 25.35 7.93 1.11 15.1-0.95 4.92-1.42 9.29-3.83 4.78-2.64 7.8-6.53 8.92-11.53 14.62-27.63 4.14-11.69 8.98-33.97 0.02-0.07 1.91-9.58 2.32-11.65 6.15-22.88 2.3-6.76 6.74-15.79 3.82-7.74 7.66-15.4 0.44-0.87 0.87 0 10.7 21.28 32.65 26.73 7.91 1.97 14.57 0.82 7.83-1.35 13.72-6.18 6.8-5.57 10.38-11.62 20.07-33.98 23.09-74.75 0.03-0.5 0.32-0.09 6.29 8.95 15.16 14.9 6.89 4.63 14.31 6.24 7.92 1.72 15.93 0.51 7.56-1.14 15-4.04 7.54-2.93 13.2-7.85 11.39-9.93 16.59-24.45 1.19-3.33 1.23-5.96 0.05-3.1-0.82-6.14-2.01-7.02-7.58-10.22-5.17-2.98-11.59-1.56-8.96 1.98-12.71 11.18-0.01 0.04-0.83 3.16-0.49 1.85-1.79 3.33-2.15 2.43-4.44 4.72-1.93 1.92-4.24 2.53-4 1.05-8.74 1.05a1.57 1.57 67.5 0 1-1.11-0.46q-2.82-2.82-5.86-5.85-0.06-0.07-1.54-1.47-6.75-6.38-4.66-15.84" stroke="#ecad12" vector-effect="non-scaling-stroke"/>
  <path d="m628.36 330.63q11.43-4.13 21.99-9.11" stroke="#ca8c18" vector-effect="non-scaling-stroke"/>
  <path d="m650.35 321.52q12.34 1.54 19.61-8.77" stroke="#ecad12" vector-effect="non-scaling-stroke"/>
  <path d="m650.35 321.52q-2.44-0.42-9.6-0.52-3.01-0.04-4.61 1.6-1.23 1.26-1.28 1.31-3.4 2.91-6.5 6.72" stroke="#dc9f0d" vector-effect="non-scaling-stroke"/>
  <path d="m301.71 538.34q3.49 3.76 5.49 9.43 1.47 4.17 0.35 7.96-0.58 1.95-3.92 6.51-13.62 18.55-19.99 40.78-0.14 0.48 0.2 0.12 12.38-13.08 26.17-24.63 4.13-3.45 7.51-4.52 4.57-1.44 8.98-0.74 6.69 1.06 12.48 5.9 1.82 1.52 2.53 3.12 0.77 1.75 0.99 3.98 0.05 0.52 0.52 0.91 0.41 0.34 0.49-0.22 3.44-22.61 8.99-39.94 4.4-13.72 13.69-28.81 11.98-19.47 29.58-31.31 2.47-1.67 5.8-3.28 3-1.46 6.02-2.88 8.98-4.23 18.64-6.54 8.97-2.14 19.52-0.18 5.09 0.95 8.28 3.15a0.35 0.34 24.6 0 0 0.53-0.19q7.79-30.37 10.25-37.15 2.03-5.58 13.68-28.18" stroke="#ecad12" vector-effect="non-scaling-stroke"/>
  <path d="m561.25 363.79 5.85 3.19a0.51 0.49 20.9 0 0 0.74-0.31l1.38-6.37" stroke="#ebad12" vector-effect="non-scaling-stroke"/>
  <path d="m1055.75 1128.54q-0.15-0.79-0.73-0.81-0.35-0.01-0.8 0.38-4.08 3.54-18.41 15.2-87.73 71.39-192.69 109.07-9.47 3.4-18.95 6.39-64.36 20.27-131.69 26.56-49.43 4.62-101.48 2.17-6.3-0.3-9.82-0.87" stroke="#f0b626" vector-effect="non-scaling-stroke"/>
  <path d="m581.18 1286.63q29.94-13.13 57.67-30.23 13.94-8.59 16.75-10.91 8.64-7.14 12.59-17.3 3.61-9.28 5.4-23.61 0.01-0.05 0.42-2.65 0.46-2.87 0.15-6.51-0.11-1.16 0.75-0.38 6.19 5.6 13.43 9.54 5.43 2.96 11.71 4 7.89 1.31 15.95 0.97 9.91-0.42 18.36-4.64 7.79-3.89 14.13-11.81 9.83-12.27 12.93-28.32 2.21-11.41 2.54-23.03 0.18-6.09 0.47-12.18 0.31-6.56 1.42-12.07 1.94-9.69 4.92-19.05 0.3-0.96 0.91-0.15 16.55 22.37 44.31 26.27 13.05 1.83 25.76-3.07 12.4-4.78 20.07-14.91 1.62-2.14 2-4.15 0.37-1.94 0.43-4.69 0.85-39.14 16.47-75.73a0.49 0.49-52.3 0 1 0.84-0.11q5.07 6.62 12.74 11.05 21.82 12.6 45.59 8.11 9.68-1.83 18.76-6.66 14.92-7.94 25.68-21.65 0.45-0.58 0.43 0.16-0.61 18.82-5.25 36.72-3.18 12.21-8.92 23.44-8.11 15.86-21.85 27.17-5.22 4.3-7.12 10.46-1.39 4.48-0.29 8.1 1.17 3.89 4.73 7.13 6.88 6.25 14.78 4.6 3.3-0.69 7.53-3.97 4.06-3.14 7.99-6.45 13.64-11.52 23.24-26.33 5.1-7.87 9.37-17.64 13.73-31.46 13.1-66.4-0.28-15.26-1.15-30.51-1.17-20.42-5.22-40.75-0.25-1.27 0.89-0.66 4.02 2.17 8.9 2.72 6.62 0.76 13.27 1 23.26 0.86 41.31-13.48 3.98-3.17 7.62-8.13 13.97-19.09 19.43-41.41 3.92-16.02 3.9-32.53-0.02-21.75-0.02-43.62 0-1.63 1.36-0.72 8.82 5.91 20.15 7.03 5.83 0.58 12.3-1.13 15.16-3.98 24.87-15.63 10.11-12.13 14.63-24.37 5.78-15.64 8.35-36.32 3.34-26.79-4.62-52.36-0.36-1.16 0.76-0.7 16.6 6.86 33.91 1.82" stroke="#fccb17" vector-effect="non-scaling-stroke"/>
  <path d="m1222.71 680q23.2 28.64 28.79 63.25 4.16 25.76 1 50.5-4.32 33.82-16.97 67.01-14 36.72-33.24 70.98-17.06 30.37-36.55 59.23-34.1 50.46-72.92 97.39a0.66 0.44-51.1 0 0-0.07 0.81q0.3 0.23 0.8-0.35 1.97-2.29 4.09-4.43 53.24-53.7 98.42-114.33 55.67-74.69 92.05-155.62 29.16-64.88 43.17-134.63 12.31-61.31 10.72-123.06-2.53-98.26-40.59-189.18-18.35-43.83-45.25-82.99-13.03-18.97-28.38-36.11-13.33-14.89-30.47-28.28-9.97-7.8-20.27-12.44" stroke="#fdd356" vector-effect="non-scaling-stroke"/>
  <path d="m1222.71 680q22.94-8.1 32.6-29.94 7.27-16.41 0.28-32.75-1.4-3.26-3.89-5.19-3.5-2.7-8.14-4.43-5.26-1.96-10.15-0.75-2.59 0.64-4.41 2.94-2.79 3.54-4.5 8.12-2.62 7.03-0.03 13.76 2.82 7.34-0.54 12.83-3.02 4.93-9.43 6.63-8.1 2.14-14.5-4.14-1.15-1.13-4.26-3.86-2.43-2.13-3.43-4.78-1.11-2.95-1.3-7.09-0.21-4.67 0.31-6.67 0.83-3.2 3.74-5.87 6.6-6.05 13.53-11.71 4.62-3.78 4.41-10.6-0.33-10.68-9.16-15-6.75-3.3-13.03-0.44-6.58 3.01-15.18 9.35-7.45 5.49-11.69 12.28-2.63 4.2-13.09 22.62" stroke="#fedc3f" vector-effect="non-scaling-stroke"/>
  <path d="m1150.85 625.31q-21.67-10.81-43.92-19.74-21.84-8.76-43.43-18.11" stroke="#fdd356" vector-effect="non-scaling-stroke"/>
  <g stroke="#ebad12">
   <path d="m542.44 418.81q2.62 1.95 4.8 1.96a0.93 0.85-72.1 0 0 0.77-0.44q6.77-10.88 10.74-23.07a0.53 0.48 22.1 0 0-0.29-0.59l-3.8-1.87q-0.6-0.3-0.92-0.29-9.7 0.25-15.08 8.2-2.06 3.05-1.61 6.78 0.7 5.85 5.39 9.32" vector-effect="non-scaling-stroke"/>
   <path d="m430.24 536.13q3.69 2.08 9.12 1.47a2.24 2.24 11.3 0 0 1.7-1.13q7.84-13.89 10.03-30.67a1.13 1.12 4.9 0 0-1.07-1.27q-6.18-0.24-13.01 0.34-6.7 0.58-11.12 4.69-4.38 4.06-4.84 10.13-0.44 5.7 2.94 10.38 3.11 4.29 6.25 6.06" vector-effect="non-scaling-stroke"/>
   <path d="m313.66 652.34q1.94 1.6 4.36 2.07 2.22 0.42 2.32 0.45 1.35 0.32 2.71 0.57 2.28 0.42 3.69-0.6 1.78-1.29 3.01-3.83 3.36-6.94 4.29-11.49 2.59-12.72 4.44-25.56 0.58-4.02 1.45-8.23 0.78-3.79 1.6-8.21 0.09-0.5-0.23-0.1-1.98 2.51-3.93 4.48-1.69 1.71-4.88 3.3-14.73 7.34-21.72 22.61-2.12 4.63-2.75 9.6-0.6 4.67 0.68 8.1 1.48 3.99 4.96 6.84" vector-effect="non-scaling-stroke"/>
   <path d="m239.35 798.75q4.57 0.44 7.6-3.21 2.04-2.45 3.08-7.03 2.16-9.54-0.28-19.26-0.84-3.37-2.19-14.01a1.83 1.61-39.2 0 1 0.16-0.95q1.65-3.51 2.28-6.29 0.85-3.77-1.93-6.13a0.36 0.34-59.8 0 0-0.55 0.16q-2.53 6.68-7.33 9.41-5.55 3.14-9.13 7.12-8.58 9.54-7.32 22.15 0.38 3.83 2.28 7.1 1.92 3.32 4.57 6.08 4.26 4.43 8.76 4.86" vector-effect="non-scaling-stroke"/>
  </g>
  <path d="m581.18 1286.63q-40.43-2.17-80.43-9.59" stroke="#f1bf10" vector-effect="non-scaling-stroke"/>
  <path d="m500.75 1277.04q64.71-16.07 124.11-46.15 0.19-0.1 7.69-3.83 6.82-3.4 8.39-4.87 2.04-1.92 3.12-5.38 2.83-9.05 3.35-17.68 0.63-10.44 0.73-11.22 1.85-14.02 6.3-28.72 5.45-18.04 15.29-32.73 15.43-23.03 42.5-29.28 7.56-1.74 12.8 3.79 5.8 6.11 6.46 14.14 0.36 4.39-1.65 7.93-2.15 3.79-5.82 6.15-0.77 0.5-7.29 3.03-9.06 3.5-14.72 11.77-6.6 9.66-4.29 21.27 2.08 10.4 12.52 12.31 2.71 0.5 5.45 0.83 0.05 0 2.96 0.58 2.88 0.58 5.29-1.04 3.5-2.36 5.63-6.02 1.57-2.7 2.65-7.6 2.22-10.13 2.03-21.57-0.22-13.04 2.03-26.76 1.66-10.1 4-19.58 5.01-20.28 15.21-38.69 4.69-8.47 12.07-17.16 17.86-21.01 44.5-26.5 6.34-1.3 10.87 1.62 2.84 1.82 5.42 6.25 2.35 4.05 3.15 7.82 1.78 8.35-5.44 13.58-4.81 3.49-9.31 4.42-4.1 0.85-7.05 2.93-2.34 1.65-5.32 5.22-4.04 4.82-5.38 10.6-1.94 8.35 3.01 15.97 4.82 7.42 13.73 8.37 9.22 0.98 17.82-2.7a1.52 1.52-9.2 0 0 0.91-1.26q0.83-9.74 2.42-19.2 1.53-9.15 3.66-18.97 6.22-28.8 19.07-55.31 3.48-7.18 7.39-13.39 3.75-5.94 8.55-12.7 6.87-9.65 15.3-16.91 5.57-4.8 9.05-6.97 4.95-3.07 10.67-4.43 4.54-1.08 8.36-1.34 4.79-0.33 8.5 1.15 11.42 4.57 10 17.93-1.04 9.89-9.42 13.4-1.5 0.62-5.19 0.87-8.46 0.55-12.39 8.18-4.1 7.96 0.17 14.85 2.19 3.52 4.8 5.91 2.73 2.5 6.78 3.86 7.33 2.47 13.85 1.13 7.8-1.61 11.4-4 8.71-5.81 14.25-17.5 5.05-10.68 5.81-24.19 0.52-9.23 0.14-43.75-0.11-10.25 2.11-20.27 0.5-2.23 0.22-4.49-1.8-14.56-2.12-29.49-0.46-22 4.29-43.47 7.05-31.93 23.38-60.24 10.5-18.22 23.93-34.36 3.24-3.91 6.35-5.47 7.24-3.64 15.31-1.29 2.68 0.78 4.4 2.9 6.39 7.89 3.33 18.5-0.66 2.28-3.53 5.74-30.42 36.74-38.68 85.51-0.01 0.05-0.45 2.23-0.48 2.32-0.41 5.17 0.01 0.69 0.56 0.27 8.97-6.79 18.96-11.41 5.05-2.33 8.78-2.2 4.9 0.18 8.95 2.98 3.13 2.15 4.56 5.08 1.59 3.25 1.17 7.06-1.27 11.62-10.78 18.21-1.75 1.21-1.8 1.25-8.31 6.12-13.81 14.88-3.31 5.28-4.31 11.42-1.66 10.1 5.57 15.59 2.36 1.79 4.93 3.1 2.87 1.44 5.7 1.55 7.86 0.3 15.71-2.56 5.03-1.83 8.58-5.39 5.32-5.34 8.26-12.53 5.31-12.99 6.84-26.79 0.6-5.39 0.5-19.99-0.2-28.06 1.11-48.24 1.62-24.92 13.84-47.46 5.48-10.12 11.44-16.33 12.58-13.09 30.97-16.71 13.05-2.57 19.74 6.83 3.11 4.36 2.94 9.47-0.19 5.56-3.49 9.89-3.78 4.95-10.26 6.51-4.94 1.2-6.16 1.77-6.39 2.98-11.33 8.72-1.23 1.42-1.71 2.93-0.86 2.72-1.01 3.01-0.79 1.47-1.72 2.69-1.21 1.59-0.5 3.45 1.82 4.77 4.75 8.76 1.18 1.61 2.9 2.43 1.32 0.63 3.54 1.6 6.17 2.7 10.78-1.1 4.49-3.69 7.13-8.88 17.32-33.94 9.24-70.78-1.18-5.38-3.76-11.15-2.43-5.39-5.07-10.69-2.09-4.2-3.01-11.46-1.6-12.67 1.06-22.69 1.25-4.69 5.29-14.25" stroke="#fccb17" vector-effect="non-scaling-stroke"/>
  <path d="m500.75 1277.04q-26.71-4.36-53-10.77-93.43-22.79-180.31-63.96-30.83-14.61-50.7-25.67" stroke="#f0b626" vector-effect="non-scaling-stroke"/>
 </g>
 <g transform="matrix(.02849 0 0 .02849002 -1.6432179e-7 -.00060112804)" stroke-width="1.00084">
  <path d="m1061.213 25.243285q-0.3503 1.711441 0.9107 2.151811 0.9108 0.320269 1.0109 0.370311 42.0353 21.618193 70.1389 59.039684 5.9651 7.946687 11.1394 16.623989 15.0928 25.29128 23.0495 53.83531 4.9241 17.65485 7.3061 35.84015 1.0009 7.62642 2.0818 15.25284 3.8632 53.52504-5.5047 106.34949-10.4087 58.72942-31.3264 114.57643-29.6249 79.08655-72.7912 151.66763-2.1618 3.64306-4.0133 7.43626-63.56354 104.74814-146.06296 197.01578-113.67567 127.14699-252.00206 225.12943-71.61027 50.7328-149.94619 90.286-59.81033 30.1954-123.59401 50.7027-50.99291 16.3938-96.79146 22.6491-31.00609 4.2335-62.30242 4.1835-7.94669-0.01-15.87336-0.5905a0.29024425 0.5804885 28.7 0 0-0.41034 0.2802q-0.14012 0.2002-0.49041 0.02-35.96027-2.2719-69.04811-12.6506-80.167469-25.1512-119.56062-99.2736-0.04003-0.08-1.281078-2.8223-1.271069-2.7924-3.723133-4.744-20.767477-52.0138-22.028538-108.09101-0.74062325-33.39811 4.0033689-66.46594 8.7473611-60.91126 29.434771-118.87002 28.503986-79.81717 70.789569-153.26898 34.87936-60.58098 76.34425-116.86835 94.38944-128.12782 214.79076-234.29716 61.53178-54.25566 126.89678-99.58381 68.55769-47.55001 143.28058-84.681256 58.91957-29.284644 121.6824-49.081303 35.19961-11.109349 71.47014-17.925085 30.69583-5.7748597 63.05306-7.5063168 22.86924-1.2210275 44.54749 0.3002526 34.78922 2.4320467 67.85702 13.421294 13.5814 4.513799 26.9628 9.588069zm-920.77489 655.97202q-18.38547 34.88936-35.33973 76.54442-20.99768 51.56338-32.197105 103.59716-2.191844 10.16856-3.74315 19.66655-4.984194 30.32552-5.284446 57.19814-0.310261 27.27295 4.794034 54.03547 4.874102 25.53145 16.533913 47.48995 19.086064 35.9203 56.367434 53.3949 27.25294 12.7708 59.86038 16.5339 29.52484 3.4129 60.11058 0.6906 40.94446-3.643 79.53693-14.1919a0.81068221 0.92077486 87.9 0 0 0.63053-0.6005l0.40034-1.5113q11.88-1.171 23.24957-4.774 41.37482-13.131 80.94812-30.956 75.24332-33.9086 143.92111-79.6871 92.99826-61.99217 174.51686-138.47653 57.11807-53.59509 108.42124-112.77489 56.4475-65.12481 103.81737-137.13541 41.55491-63.18317 72.41081-129.9994 25.7118-55.68686 43.3866-116.53807 1.5213-3.52296 1.7915-6.80572 7.2761-25.86177 11.4296-55.99713 5.0242-36.44067 1.5914-71.32002-1.0609-10.76906-2.8925-19.78665-3.9733-19.52643-11.7699-36.94109-14.8224-33.08784-44.1972-54.025462-7.8166-5.574691-17.1544-10.27865-17.9551-9.06763-36.67083-13.32121-36.841-8.37705-76.32423-5.874944-42.69592 2.702275-84.11078 13.45132-24.80087 6.445424-48.99122 14.932566-46.42908 16.2737-90.50618 38.12208-77.8455 38.59248-148.48494 89.16503-70.48932 50.47248-134.09285 109.39206-49.00124 45.39821-95.62046 97.05168-58.65937 64.98469-107.28028 135.42396-39.25304 56.86785-69.05812 114.30619z" fill="#fdd400"/>
  <path d="m1061.213 25.243285q31.3063 11.67983 63.053 29.484812 37.9019 21.25789 72.3109 47.790213 29.3646 22.63905 54.4859 46.34901 22.9993 21.71827 43.8068 47.80023 37.8418 47.44992 63.6836 102.37615 42.5558 90.42609 45.4482 190.6104v24.77084l-0.2102 6.94585q-2.7223 56.48754-15.8633 109.03175-14.5222 58.01883-40.334 114.85665-28.1136 61.90209-65.2749 118.85001-46.9195 71.89049-103.1668 136.7551-58.6394 67.6069-123.6941 129.0586-0.1501-0.7907-0.7306-0.8107-0.3503-0.01-0.8006 0.3803-4.0836 3.543-18.4256 15.2128-87.80386 71.4501-192.85226 109.1619-9.47798 3.4029-18.96596 6.3954-64.4142 20.2871-131.80091 26.5824-49.47164 4.6238-101.56547 2.1718-6.30531-0.3003-9.82827-0.8707 29.96521-13.1411 57.71857-30.2555 13.95174-8.5973 16.7641-10.9193 8.64728-7.146 12.60061-17.3145 3.61304-9.2878 5.40454-23.6299 0.01-0.05 0.42036-2.6522 0.46038-2.8724 0.15012-6.5155-0.11009-1.161 0.75063-0.3803 6.19522 5.6047 13.44132 9.548 5.43457 2.9625 11.71986 4.0034 7.89665 1.3111 15.96344 0.9708 9.91835-0.4203 18.37546-4.6439 7.79656-3.8933 14.1419-11.8199 9.83828-12.2804 12.94089-28.3439 2.21186-11.4196 2.54214-23.0494 0.18015-6.0951 0.47039-12.1903 0.31026-6.5655 1.42121-12.0801 1.94163-9.6982 4.92414-19.0661 0.30025-0.9608 0.91076-0.1501 16.56394 22.3888 44.34733 26.2921 13.06098 1.8316 25.78169-3.0726 12.41044-4.784 20.0869-14.9225 1.62136-2.1418 2.00168-4.1535 0.37031-1.9416 0.43036-4.6939 0.85072-39.173 16.48388-75.7938a0.49041269 0.49041269 0 0 1 0.84071-0.1101q5.07427 6.6255 12.75072 11.0593 21.83839 12.6106 45.6284 8.1168 9.68816-1.8316 18.77581-6.6656 14.93256-7.9467 25.70162-21.6682 0.45038-0.5805 0.43036 0.1601-0.61051 18.8358-5.25442 36.7509-3.18267 12.2204-8.92751 23.4598-8.11683 15.8733-21.8684 27.1929-5.2244 4.3036-7.126 10.4688-1.39117 4.4837-0.29024 8.1068 1.17098 3.8932 4.73399 7.136 6.88578 6.2552 14.79244 4.6038 3.30277-0.6905 7.53634-3.9733 4.06342-3.1426 7.99673-6.4554 13.65149-11.5297 23.25957-26.3522 5.10427-7.8766 9.37787-17.6548 13.7415-31.4866 13.111-66.456-0.2802-15.27282-1.151-30.53565-1.1709-20.4372-5.2244-40.78433-0.2502-1.27106 0.8908-0.66055 4.0234 2.17183 8.9075 2.72229 6.6256 0.76064 13.2811 1.00084 23.2797 0.86072 41.3449-13.49135 3.9833-3.17268 7.6264-8.13685 13.9818-19.10608 19.4464-41.44488 3.9233-16.03349 3.9032-32.55739-0.02-21.76833-0.02-43.65675 0-1.63136 1.3612-0.7206 8.8274 5.91498 20.1669 7.03592 5.8349 0.58049 12.3104-1.13095 15.1728-3.98336 24.891-15.64316 10.1185-12.14021 14.6423-24.39052 5.7849-15.65317 8.357-36.35059 3.3428-26.81257-4.6239-52.4041-0.3603-1.16097 0.7607-0.70059 16.6139 6.86577 33.9385 1.82153 23.2195 28.66413 28.8143 63.30327 4.1635 25.7817 1.0009 50.54253-4.3238 33.84849-16.9844 67.06644-14.0118 36.75093-33.268 71.03978-17.0743 30.39557-36.5807 59.27988-34.1288 50.50248-72.9815 97.47208a0.44037058 0.66055587 38.9 0 0-0.07 0.8106q0.3002 0.2302 0.8006-0.3503 1.9717-2.2919 4.0935-4.4337 53.2849-53.7453 98.5029-114.42629 55.7169-74.7529 92.1275-155.75107 29.1845-64.93463 43.2063-134.74338 12.3204-61.36163 10.729-123.16364-2.5321-98.34276-40.6241-189.33933-18.3654-43.86692-45.2881-83.05991-13.041-18.98597-28.4039-36.1404-13.3413-14.90255-30.4957-28.30382-9.9784-7.80658-20.287-12.45048-1.0809-7.62642-2.0818-15.25284-2.382-18.1853-7.3061-35.84015-7.9567-28.54403-23.0495-53.83531-5.1743-8.677302-11.1394-16.623989-28.1036-37.421491-70.1389-59.039684-0.1001-0.05004-1.0109-0.370311-1.261-0.44037-0.9107-2.151811z" fill="#fbc22d"/>
  <path d="m1094.571 336.91557q-65.4851-48.97121-144.14126-62.06224-54.0755-9.00758-108.67145-3.62304-23.62988 2.33196-46.95952 6.73567-37.46152 7.06594-73.81211 18.5356-29.08448 9.1677-50.54253 17.50472-1.09092 0.43036-1.10093-0.56047 4.95416-8.62726-0.6005-16.90422-2.9725-4.42373-8.92752-6.55552-8.41708-3.00252-16.58396-3.48292-7.86661-0.47041-16.60396 1.81152-14.87252 3.88326-26.92266 13.99177-9.58807 8.03676-15.0827 17.45469-10.8091 18.54561-16.10355 41.27473-4.49378 1.26106-7.97671 3.49294-10.18857-3.00253-19.51642-0.54046-34.17876 9.03761-55.35658 38.22217-4.89413 6.73567-7.9567 10.19858-92.27765 58.04885-176.92889 126.81673-5.89497-5.84493-13.1911-3.72314-7.56637 2.19185-10.97924 6.69563-9.55804 12.61061-18.11525 32.46732-1.48124 0.79067-4.2736 3.1927-60.71109 52.12386-113.10518 103.22686a0.37031163 0.5804885 35.4 0 1-0.43036 0.17014l-0.25021-0.04q29.80508-57.43834 69.05812-114.30619 48.62091-70.43927 107.28028-135.42396 46.61922-51.65347 95.62046-97.05168 63.60353-58.91958 134.09285-109.39206 70.63944-50.57255 148.48494-89.16503 44.0771-21.84838 90.50618-38.122075 24.19035-8.487142 48.99122-14.932566 41.41486-10.749045 84.11078-13.45132 39.48323-2.502106 76.32423 5.874944 18.71573 4.25358 36.67083 13.32121 9.3378 4.703959 17.1544 10.27865 29.3748 20.937617 44.1972 54.025457 7.7966 17.41466 11.7699 36.94109 1.8316 9.01759 2.8925 19.78665 3.4328 34.87935-1.5914 71.32002-4.1535 30.13536-11.4296 55.99713z" fill="#ba7d13"/>
  <path d="m1176.8503 208.35738q10.3086 4.6439 20.287 12.45048 17.1544 13.40127 30.4957 28.30382 15.3629 17.15443 28.4039 36.1404 26.9227 39.19299 45.2881 83.05991 38.092 90.99657 40.6241 189.33933 1.5914 61.80201-10.729 123.16364-14.0218 69.80875-43.2063 134.74338-36.4106 80.99817-92.1275 155.75107-45.218 60.68099-98.5029 114.42629-2.1218 2.1418-4.0935 4.4337-0.5004 0.5805-0.8006 0.3503a0.44037058 0.66055587 38.9 0 1 0.07-0.8106q38.8527-46.9696 72.9815-97.47208 19.5064-28.88431 36.5807-59.27988 19.2562-34.28885 33.268-71.03978 12.6606-33.21795 16.9844-67.06644 3.1626-24.76083-1.0009-50.54253-5.5948-34.63914-28.8143-63.30327 22.9593-8.10682 32.6275-29.96521 7.2761-16.42383 0.2803-32.77758-1.4012-3.26276-3.8933-5.19438-3.5031-2.70227-8.147-4.43373-5.2644-1.96164-10.1585-0.75063-2.5922 0.64054-4.4137 2.94248-2.7924 3.54297-4.5038 8.12684-2.6222 7.03591-0.03 13.77158 2.8223 7.34619-0.5405 12.84081-3.0225 4.93415-9.4379 6.63558-8.1068 2.1418-14.5122-4.14348-1.151-1.13095-4.2636-3.86326-2.432-2.13179-3.4329-4.78402-1.1109-2.95248-1.3011-7.09597-0.2102-4.67393 0.3103-6.67562 0.8307-3.20269 3.7431-5.87494 6.6056-6.0551 13.5414-11.71986 4.6239-3.78319 4.4137-10.60893-0.3303-10.68899-9.1677-15.01264-6.7557-3.30277-13.0409-0.44037-6.5856 3.01253-15.1928 9.35788-7.4563 5.49463-11.6998 12.29034-2.6323 4.20354-13.1011 22.63905-21.6883-10.81911-43.957-19.75662-21.8584-8.76738-43.4665-18.12525 1.8515-3.7932 4.0133-7.43626 43.1663-72.58108 72.7912-151.66763 20.9177-55.84701 31.3264-114.57643 9.3679-52.82445 5.5047-106.34949z" fill="#ffe47e"/>
  <path d="m1094.571 336.91557q-0.2702 3.28276-1.7915 6.80572-27.5732-11.97007-57.5885-14.46217-34.559-2.8624-68.79782 2.53213-52.55423 8.28698-101.99584 27.91349-37.3214 14.80245-72.70118 33.78843-67.63692 36.28054-128.20789 83.43022-123.33379 96.0208-214.05013 223.31792-45.68845 64.11395-78.45602 135.69418-22.02854 48.12049-34.50904 99.56378-6.79572 28.05361-9.12768 57.76862-2.41203 30.83591 2.56216 60.74121 3.47292 20.8375 12.20026 40.0536l-0.40034 1.5113a0.81068221 0.92077486 87.9 0 1-0.63053 0.6005q-38.59247 10.5489-79.53693 14.1919-30.58574 2.7223-60.11058-0.6906-32.60744-3.7631-59.86038-16.5339-37.28137-17.4746-56.367434-53.3949-11.659811-21.9585-16.533913-47.48996-5.104295-26.76252-4.794034-54.03547 0.300252-26.87262 5.284446-57.19814 1.551306-9.49799 3.74315-19.66655 11.199425-52.03378 32.197105-103.59716 16.95426-41.65506 35.33973-76.54442l0.25021 0.04a0.37031163 0.5804885 35.4 0 0 0.43036-0.17014q52.39409-51.103 113.10518-103.22686 2.79236-2.40203 4.2736-3.1927-12.46048 32.15707-15.16276 66.55602-1.62136 20.72744-0.45038 41.4749 0 0.0801 0.42035 4.59387 0.34029 3.60303-0.04 7.22607-1.61135 15.25284-0.0801 32.29719 0.0801 0.89075-0.63053 0.35029-5.99504-4.58386-12.0101-3.6731-5.67478 0.86073-7.09598 1.74147-17.14442 10.59892-27.23291 28.0436-8.78739 15.21281-11.74989 32.5674-1.94163 11.39961-1.74147 22.88926 0.14012 7.78656 2.44207 19.49641 5.70479 29.03443 9.31783 42.43571 4.31363 16.00347 5.45459 32.52737 0.58049 8.26696-0.9608 16.32374-0.76064 3.97334-2.78234 6.76569-2.54215 3.51296-5.52466 5.12431-8.96754 4.84407-18.27538-0.01-1.53128-0.80067-2.03171-2.45206-1.00084-3.27276-1.52127-6.39538-0.49042-2.96249 0.52043-5.56468 1.98167-5.09429 5.87495-8.95754 1.28108-1.28108 3.95332-2.32196 3.70312-1.45122 6.54552-4.10345 3.8132-3.55299 4.764-8.34703 1.46123-7.32616-4.34365-13.51136-6.28529-6.69564-15.19279-4.57386-5.76485 1.37117-10.90918 4.46377-4.61388 2.77233-8.88748 7.52633-8.80741 9.80826-12.70069 22.29876-2.67224 8.57722-1.84154 17.21449 0.87073 8.92751 4.5238 17.05435 3.86326 8.59723 10.77907 14.33206 11.55973 9.57807 27.55319 10.54888 15.25283 0.92078 29.32468-7.05594 14.25199-8.0768 19.58648-22.77917 2.56215-7.09597 3.61304-14.56226 4.93415-35.12955-7.30615-68.24743-4.52381-12.22028-7.39622-26.32214-0.27023-1.35114-0.29025-3.05257-0.02-1.4112-0.11009-3.10262a0.30025267 0.30025267 0 0 1 0.43036-0.29024q6.83575 3.41288 14.09186 4.91414 7.62642 1.58133 14.7324 0.46039 10.36873-1.63138 19.41634-8.00674a0.8507159 0.8507159 0 0 1 1.3111 0.49041q2.2619 8.86746 5.68478 18.03518 4.24358 11.35956 5.23441 23.36966 0.31026 3.71312-0.13011 8.39707-0.40033 4.18351-0.85071 8.35703-0.01 0.11009-0.41035 4.92414-1.38116 16.61399-14.18194 26.50231-5.93499 4.59386-6.44542 5.15433-3.06258 3.36284-3.94332 7.47629-2.382 11.12937 6.0551 16.33375 3.24272 1.99168 8.17688 2.4921 4.32364 0.43036 8.66729 0.11009 2.30194-0.18015 4.24357-1.51127 11.53971-7.93668 18.77581-19.54645 8.29698-13.33122 11.21944-28.85428 1.25105-6.61557 0.80067-15.31288-1.10093-21.24789-5.20439-43.84691-0.81068-4.47376-1.25105-10.29866-0.49041-6.4154-1.3111-10.22861-1.94163-8.98757-5.88495-22.81919-11.11935-39.03285-17.61482-85.75217-0.67057-4.83406-1.10093-9.67814-0.43036-4.93415 0.36031-9.65813 1.88158-11.1694 5.49461-21.83838 0.28024-0.82069 0.72061-0.0701 7.37621 12.38042 19.93678 18.08522 5.99505 2.7323 12.91087 4.46376 7.18604 1.80152 13.76158 1.17099 9.87831-0.9408 18.26537-7.0059 10.74904-7.77654 15.70321-19.57647 5.8149-13.87168 8.04677-31.71669 1.51127-12.06016 3.66309-24.02022 1.53129-8.52718 2.31194-14.56225 0.9508-7.32617 1.89159-14.64233 1.68142-13.13104 6.03509-25.59153 0.66055-1.9016 1.80151-3.6731 1.03087-1.61135 2.24188-3.4529a0.6705643 0.68057272 35.4 0 1 0.97082-0.17014q0.91077 0.7106 1.51127 1.94163 10.66898 21.94847 35.13958 25.37136 7.93668 1.11093 15.11271-0.9508 4.92415-1.4212 9.29782-3.83323 4.78404-2.64223 7.80658-6.5355 8.92751-11.53971 14.63231-27.65327 4.14349-11.69984 8.98756-33.99861 0.02-0.0701 1.91162-9.58807 2.32195-11.65982 6.15517-22.89927 2.30193-6.76569 6.74568-15.8033 3.82321-7.74652 7.66645-15.41297 0.44037-0.87073 0.87074 0 10.70901 21.29792 32.67749 26.75251 7.91667 1.97166 14.58227 0.82069 7.8366-1.35113 13.73156-6.18521 6.80573-5.57468 10.38874-11.62978 20.08691-34.00862 23.10945-74.81295 0.03-0.50042 0.32027-0.0901 6.2953 8.95754 15.17277 14.91255 6.89579 4.6339 14.32205 6.24526 7.92667 1.72144 15.94342 0.51042 7.56637-1.14095 15.01263-4.0434 7.54635-2.93247 13.21112-7.85661 11.39959-9.93836 16.60397-24.4706 1.191-3.3328 1.23103-5.96501 0.05-3.10262-0.82069-6.14517-2.01169-7.02592-7.58638-10.22861-5.17435-2.98251-11.59977-1.56131-8.96754 1.98166-12.7207 11.18941-0.01 0.04-0.8307 3.16266-0.49041 1.85156-1.7915 3.33281-2.15181 2.43204-4.44375 4.72397-1.93162 1.92162-4.24356 2.53213-4.00337 1.05088-8.74737 1.05088a1.5713223 1.5713223 0 0 1-1.11093-0.46038q-2.82237-2.82238-5.86494-5.85493-0.06-0.07-1.54129-1.47123-6.75568-6.38538-4.66392-15.85335 11.43962-4.13347 22.00851-9.11767 12.35039 1.54129 19.62652-8.77739 0.01 0.99083 1.10093 0.56047 21.45805-8.33702 50.54253-17.50472 36.35059-11.46966 73.81211-18.5356 23.32964-4.40371 46.95952-6.73567 54.59595-5.38454 108.67145 3.62304 78.65616 13.09103 144.14126 62.06224z" fill="#d99a1d"/>
  <path d="m669.3432 313.44581q-7.27613 10.31868-19.62652 8.77739-2.44205-0.42035-9.60808-0.52044-3.01253-0.04-4.61388 1.60135-1.23104 1.26106-1.28109 1.3111-3.40286 2.91246-6.50546 6.72566-2.09176 9.46797 4.66392 15.85335 1.48124 1.40118 1.54129 1.47123 3.04257 3.03255 5.86494 5.85493a1.5713223 1.5713223 0 0 0 1.11093 0.46038q4.744 0 8.74737-1.05088 2.31194-0.61051 4.24356-2.53213 2.29194-2.29193 4.44375-4.72397 1.30109-1.48125 1.7915-3.33281 0.82069-3.12263 0.8307-3.16266 3.75316-9.20775 12.7207-11.18941 6.42542-1.4212 11.59977 1.56131 5.57469 3.20269 7.58638 10.22861 0.87073 3.04255 0.82069 6.14517-0.04 2.63221-1.23103 5.96501-5.20438 14.53224-16.60397 24.4706-5.66477 4.92414-13.21112 7.85661-7.44626 2.90245-15.01263 4.0434-8.01675 1.21102-15.94342-0.51042-7.42626-1.61136-14.32205-6.24526-8.87747-5.95501-15.17277-14.91255-0.29025-0.41034-0.32027 0.0901-3.02254 40.80433-23.10945 74.81295-3.58301 6.0551-10.38874 11.62978-5.89496 4.83408-13.73156 6.18521-6.6656 1.15097-14.58227-0.82069-21.96848-5.45459-32.67749-26.75251-0.43037-0.87073-0.87074 0-3.84324 7.66645-7.66645 15.41297-4.44375 9.03761-6.74568 15.8033-3.83322 11.23945-6.15517 22.89927-1.8916 9.518-1.91162 9.58807-4.84407 22.29877-8.98756 33.99861-5.7048 16.11356-14.63231 27.65327-3.02254 3.89327-7.80658 6.5355-4.37367 2.41203-9.29782 3.83323-7.17603 2.06173-15.11271 0.9508-24.4706-3.42289-35.13958-25.37136-0.6005-1.23103-1.51127-1.94163a0.6705643 0.68057272 35.4 0 0-0.97082 0.17014q-1.21101 1.84155-2.24188 3.4529-1.14096 1.7715-1.80151 3.6731-4.35367 12.46049-6.03509 25.59153-0.94079 7.31616-1.89159 14.64233-0.78065 6.03507-2.31194 14.56225-2.15182 11.96006-3.66309 24.02022-2.23187 17.84501-8.04677 31.71669-4.95417 11.79993-15.70321 19.57647-8.38706 6.0651-18.26537 7.0059-6.57554 0.63053-13.76158-1.17099-6.91582-1.73146-12.91087-4.46376-12.56057-5.7048-19.93678-18.08522-0.44037-0.75063-0.72061 0.0701-3.61303 10.66898-5.49461 21.83838-0.79067 4.72398-0.36031 9.65813 0.43036 4.84408 1.10093 9.67814 6.49547 46.71932 17.61482 85.75217 3.94332 13.83162 5.88495 22.81919 0.82069 3.81321 1.3111 10.22861 0.44037 5.8249 1.25105 10.29866 4.10346 22.59902 5.20439 43.84691 0.45038 8.69731-0.80067 15.31288-2.92246 15.52306-11.21944 28.85428-7.2361 11.60977-18.77581 19.54645-1.94163 1.33112-4.24357 1.51127-4.34365 0.32027-8.66729-0.11009-4.93416-0.50042-8.17688-2.4921-8.4371-5.20438-6.0551-16.33375 0.88074-4.11345 3.94332-7.47629 0.51043-0.56047 6.44542-5.15433 12.80078-9.88832 14.18194-26.50231 0.40034-4.81405 0.41035-4.92414 0.45038-4.17352 0.85071-8.35703 0.44037-4.68395 0.13011-8.39707-0.99083-12.0101-5.23441-23.36966-3.42288-9.16772-5.68478-18.03518a0.8507159 0.8507159 0 0 0-1.3111-0.49041q-9.04761 6.37536-19.41634 8.00674-7.10598 1.12094-14.7324-0.46039-7.25611-1.50126-14.09186-4.91414a0.30025267 0.30025267 0 0 0-0.43036 0.29024q0.0901 1.69142 0.11009 3.10262 0.02 1.70143 0.29025 3.05257 2.87241 14.10186 7.39622 26.32214 12.2403 33.11788 7.30615 68.24743-1.05089 7.46629-3.61304 14.56226-5.33449 14.70237-19.58648 22.77917-14.07185 7.97672-29.32468 7.05594-15.99346-0.97081-27.55319-10.54888-6.91581-5.73483-10.77907-14.33206-3.65307-8.12684-4.5238-17.05435-0.8307-8.63727 1.84154-17.21449 3.89328-12.4905 12.70069-22.29876 4.2736-4.754 8.88748-7.52633 5.14433-3.0926 10.90918-4.46377 8.9075-2.12178 15.19279 4.57386 5.80488 6.1852 4.34365 13.51136-0.9508 4.79404-4.764 8.34703-2.8424 2.65223-6.54552 4.10345-2.67224 1.04088-3.95332 2.32196-3.89328 3.86325-5.87495 8.95754-1.01085 2.60219-0.52043 5.56468 0.52043 3.12262 1.52127 6.39538 0.50043 1.65139 2.03171 2.45206 9.30784 4.85408 18.27538 0.01 2.98251-1.61135 5.52466-5.12431 2.0217-2.79235 2.78234-6.76569 1.54129-8.05678 0.9608-16.32374-1.14096-16.5239-5.45459-32.52737-3.61304-13.40128-9.31783-42.43571-2.30195-11.70985-2.44207-19.49641-0.20016-11.48965 1.74147-22.88926 2.9625-17.35459 11.74989-32.5674 10.08849-17.44468 27.23291-28.0436 1.4212-0.88074 7.09598-1.74147 6.01506-0.91076 12.0101 3.6731 0.7106 0.54046 0.63053-0.35029-1.53128-17.04435 0.0801-32.29719 0.38032-3.62304 0.04-7.22607-0.42035-4.51381-0.42035-4.59387-1.17098-20.74746 0.45038-41.4749 2.70228-34.39895 15.16276-66.55602 8.55721-19.85671 18.11525-32.46732 3.41287-4.50378 10.97924-6.69563 7.29613-2.12179 13.1911 3.72314 3.49293 3.76316 5.49462 9.43794 1.47124 4.17351 0.3503 7.9667-0.58049 1.95164-3.92331 6.51548-13.63147 18.56563-20.00684 40.81435-0.14011 0.4804 0.20017 0.1201 12.39044-13.09102 26.19205-24.65074 4.13347-3.45291 7.51633-4.52381 4.57384-1.44122 8.98756-0.74063 6.69563 1.06089 12.49051 5.90498 1.82153 1.52127 2.53213 3.12262 0.77064 1.75147 0.99083 3.98336 0.05 0.52044 0.52044 0.91076 0.41034 0.34029 0.49041-0.22018 3.4429-22.62905 8.99757-39.97364 4.40371-13.73156 13.70154-28.83427 11.99009-19.48639 29.6049-31.33636 2.47209-1.67142 5.80489-3.28277 3.00253-1.46123 6.02508-2.88243 8.98756-4.23356 18.6557-6.54551 8.97754-2.1418 19.53643-0.18015 5.09429 0.9508 8.28697 3.15266a0.35029478 0.34028636 24.6 0 0 0.53045-0.19016q7.79656-30.39558 10.25863-37.18129 2.03172-5.58471 13.69153-28.20374 3.06257-3.46291 7.9567-10.19858 21.17782-29.18456 55.35658-38.22217 9.32785-2.46207 19.51642 0.54046l5.85493 3.19269a0.51042954 0.49041269 20.9 0 0 0.74062-0.31026l1.38116-6.37537q5.29445-22.72912 16.10355-41.27473 5.49463-9.41793 15.0827-17.45469 12.05014-10.10851 26.92266-13.99177 8.73735-2.28193 16.60396-1.81152 8.16688 0.4804 16.58396 3.48292 5.95502 2.13179 8.92752 6.55552 5.55466 8.27696 0.6005 16.90422zm-127.6274 106.14933q2.6222 1.95164 4.80404 1.96165a0.8507159 0.93078328 17.9 0 0 0.77065-0.44037q6.7757-10.88916 10.74905-23.08943a0.53044638 0.48040427 22.1 0 0-0.29025-0.59049l-3.8032-1.87159q-0.60051-0.30025-0.92078-0.29024-9.70817 0.25021-15.09269 8.20691-2.06174 3.05257-1.61136 6.78571 0.70059 5.85492 5.39454 9.32785zm-112.2945 117.41882q3.6931 2.08175 9.12768 1.47123a2.2418866 2.2418866 0 0 0 1.70143-1.13095q7.84661-13.9017 10.03845-30.69583a1.1309517 1.1209433 4.9 0 0-1.0709-1.27108q-6.18521-0.2402-13.02095 0.34029-6.70565 0.58049-11.12937 4.69395-4.38369 4.06342-4.84408 10.13854-0.44037 5.70479 2.94247 10.38874 3.11263 4.29361 6.25527 6.06511zm-116.67819 116.30787q1.94163 1.60134 4.36368 2.07174 2.22186 0.42035 2.32195 0.45038 1.35113 0.32026 2.71228 0.57049 2.28192 0.42035 3.69311-0.60052 1.7815-1.29108 3.01253-3.83322 3.36283-6.94585 4.29361-11.49968 2.59219-12.73071 4.44375-25.58153 0.58049-4.02338 1.45122-8.23692 0.78065-3.7932 1.60134-8.21692 0.0901-0.50042-0.23019-0.10008-1.98167 2.51211-3.93331 4.48377-1.69143 1.71143-4.88411 3.30277-14.7424 7.34619-21.73829 22.62905-2.12179 4.6339-2.75232 9.60809-0.6005 4.67393 0.68058 8.10682 1.48124 3.99336 4.96417 6.84576zm-74.37258 146.53331q4.57384 0.44037 7.6064-3.2127 2.04172-2.45207 3.08259-7.03592 2.16182-9.54804-0.28023-19.27623-0.84071-3.37283-2.19185-14.0218a1.611356 1.8315413 50.8 0 1 0.16014-0.9508q1.65139-3.51295 2.28192-6.29529 0.85071-3.77318-1.93163-6.13517a0.34028636 0.3603032 30.2 0 0-0.55046 0.16014q-2.53214 6.68563-7.33618 9.41792-5.55468 3.14264-9.13769 7.126-8.58722 9.54804-7.32616 22.16866 0.38031 3.83322 2.28192 7.10598 1.92162 3.32279 4.57385 6.08511 4.26358 4.43374 8.76738 4.8641z" fill="#fec007"/>
  <path d="m649.71668 322.2232q-10.56889 4.9842-22.00851 9.11767 3.1026-3.8132 6.50546-6.72566 0.0501-0.05 1.28109-1.3111 1.60135-1.64138 4.61388-1.60135 7.16603 0.10009 9.60808 0.52044z" fill="#ba7d13"/>
  <path d="m568.51835 361.03586-1.38116 6.37537a0.51042954 0.49041269 20.9 0 1-0.74062 0.31026l-5.85493-3.19269q3.48293-2.23188 7.97671-3.49294z" fill="#d89a1c"/>
  <path d="m541.7158 419.59514q-4.69395-3.47293-5.39454-9.32785-0.45038-3.73314 1.61136-6.78571 5.38452-7.9567 15.09269-8.20691 0.32027-0.01 0.92078 0.29024l3.8032 1.87159a0.53044638 0.48040427 22.1 0 1 0.29025 0.59049q-3.97335 12.20027-10.74905 23.08943a0.8507159 0.93078328 17.9 0 1-0.77065 0.44037q-2.18184-0.01-4.80404-1.96165z" fill="#d89a1c"/>
  <path d="m477.71194 412.40909q-11.65981 22.61903-13.69153 28.20374-2.46207 6.78571-10.25863 37.18129a0.35029478 0.34028636 24.6 0 1-0.53045 0.19016q-3.19268-2.20186-8.28697-3.15266-10.55889-1.96165-19.53643 0.18015-9.66814 2.31195-18.6557 6.54551-3.02255 1.4212-6.02508 2.88243-3.3328 1.61135-5.80489 3.28277-17.61481 11.84997-29.6049 31.33636-9.29783 15.10271-13.70154 28.83427-5.55467 17.34459-8.99757 39.97364-0.0801 0.56047-0.49041 0.22018-0.4704-0.39032-0.52044-0.91076-0.22019-2.23189-0.99083-3.98336-0.7106-1.60135-2.53213-3.12262-5.79488-4.84409-12.49051-5.90498-4.41372-0.70059-8.98756 0.74063-3.38286 1.0709-7.51633 4.52381-13.80161 11.55972-26.19205 24.65074-0.34028 0.3603-0.20017-0.1201 6.37537-22.24872 20.00684-40.81435 3.34282-4.56384 3.92331-6.51548 1.12094-3.79319-0.3503-7.9667-2.00169-5.67478-5.49462-9.43794 84.65124-68.76788 176.92889-126.81673z" fill="#d99a1d"/>
  <path d="m423.16603 530.94885q-3.38284-4.68395-2.94247-10.38874 0.46039-6.07512 4.84408-10.13854 4.42372-4.11346 11.12937-4.69395 6.83574-0.58049 13.02095-0.34029a1.1309517 1.1209433 4.9 0 1 1.0709 1.27108q-2.19184 16.79413-10.03845 30.69583a2.2418866 2.2418866 0 0 1-1.70143 1.13095q-5.43458 0.61052-9.12768-1.47123-3.14264-1.7715-6.25527-6.06511z" fill="#d89a1c"/>
  <path d="m1222.5587 681.00512q-17.3246 5.04424-33.9385-1.82153-1.121-0.46038-0.7607 0.70059 7.9667 25.59153 4.6239 52.4041-2.5721 20.69742-8.357 36.35059-4.5238 12.25031-14.6423 24.39052-9.7182 11.6598-24.891 15.64316-6.4755 1.71144-12.3104 1.13095-11.3395-1.12094-20.1669-7.03592-1.3612-0.91076-1.3612 0.7206 0 21.88842 0.02 43.65675 0.02 16.5239-3.9032 32.55739-5.4646 22.3388-19.4464 41.44488-3.6431 4.96417-7.6264 8.13685-18.0652 14.35207-41.3449 13.49135-6.6555-0.2402-13.2811-1.00084-4.8841-0.55046-8.9075-2.72229-1.141-0.61051-0.8908 0.66055 4.0535 20.34713 5.2244 40.78433 0.8708 15.26283 1.151 30.53565 0.6305 34.9694-13.111 66.456-4.2736 9.7782-9.37787 17.6548-9.60808 14.8225-23.25957 26.3522-3.93331 3.3128-7.99673 6.4554-4.23357 3.2828-7.53634 3.9733-7.90666 1.6514-14.79244-4.6038-3.56301-3.2428-4.73399-7.136-1.10093-3.6231 0.29024-8.1068 1.9016-6.1652 7.126-10.4688 13.75157-11.3196 21.8684-27.1929 5.74484-11.2394 8.92751-23.4598 4.64391-17.9151 5.25442-36.7509 0.02-0.7406-0.43036-0.1601-10.76906 13.7215-25.70162 21.6682-9.08765 4.834-18.77581 6.6656-23.79001 4.4938-45.6284-8.1168-7.67645-4.4338-12.75072-11.0593a0.49041269 0.49041269 0 0 0-0.84071 0.1101q-15.63316 36.6208-16.48388 75.7938-0.0601 2.7523-0.43036 4.6939-0.38032 2.0117-2.00168 4.1535-7.67646 10.1385-20.0869 14.9225-12.72071 4.9042-25.78169 3.0726-27.78339-3.9033-44.34733-26.2921-0.61051-0.8107-0.91076 0.1501-2.98251 9.3679-4.92414 19.0661-1.11095 5.5146-1.42121 12.0801-0.29024 6.0952-0.47039 12.1903-0.33028 11.6298-2.54214 23.0494-3.10261 16.0635-12.94089 28.3439-6.34534 7.9266-14.1419 11.8199-8.45711 4.2236-18.37546 4.6439-8.06679 0.3403-15.96344-0.9708-6.28529-1.0409-11.71986-4.0034-7.2461-3.9433-13.44132-9.548-0.86072-0.7807-0.75063 0.3803 0.31026 3.6431-0.15012 6.5155-0.41035 2.6022-0.42036 2.6522-1.7915 14.3421-5.40454 23.6299-3.95333 10.1685-12.60061 17.3145-2.81236 2.322-16.7641 10.9193-27.75336 17.1144-57.71857 30.2555-40.46406-2.1719-80.49774-9.5981 64.76449-16.0835 124.21452-46.1889 0.19016-0.1001 7.69648-3.8333 6.82575-3.4028 8.39707-4.8741 2.04171-1.9216 3.12262-5.3845 2.83239-9.0576 3.35283-17.6949 0.63053-10.4487 0.73061-11.2294 1.85156-14.0318 6.3053-28.7442 5.4546-18.0552 15.30289-32.7576 15.44299-23.0494 42.53579-29.3046 7.56637-1.7415 12.81078 3.7932 5.80489 6.1151 6.46544 14.1519 0.3603 4.3937-1.65139 7.9366-2.15181 3.7932-5.8249 6.1552-0.77065 0.5004-7.29613 3.0326-9.06764 3.5029-14.73241 11.7799-6.60556 9.6682-4.29361 21.288 2.08175 10.4087 12.53055 12.3203 2.71228 0.5004 5.45459 0.8307 0.05 0 2.96249 0.5805 2.88242 0.5805 5.29445-1.0409 3.50295-2.362 5.63475-6.025 1.57132-2.7023 2.65223-7.6064 2.22186-10.1386 2.0317-21.5883-0.22018-13.051 2.03172-26.7825 1.6614-10.1085 4.00337-19.5965 5.01421-20.297 15.2228-38.7225 4.69396-8.4772 12.08017-17.1746 17.87504-21.0276 44.53748-26.5222 6.34534-1.3011 10.87915 1.6213 2.8424 1.8216 5.42457 6.2553 2.35198 4.0534 3.15265 7.8266 1.7815 8.357-5.44457 13.5914-4.81406 3.4929-9.31784 4.4237-4.10346 0.8507-7.05595 2.9326-2.34196 1.6514-5.32448 5.2244-4.0434 4.824-5.38453 10.6089-1.94163 8.357 3.01254 15.9834 4.82406 7.4262 13.74157 8.377 9.22775 0.9809 17.835-2.7022a1.5212802 1.5212802 0 0 0 0.91076-1.2611q0.8307-9.7482 2.42205-19.2161 1.53128-9.1577 3.66308-18.9861 6.22524-28.8242 19.08606-55.35653 3.48293-7.18604 7.39623-13.40128 3.75315-5.945 8.5572-12.71069 6.87578-9.65813 15.31288-16.92425 5.57469-4.80403 9.05762-6.97587 4.95417-3.07258 10.67899-4.43373 4.54382-1.0809 8.36704-1.34112 4.79403-0.33028 8.50716 1.15096 11.42962 4.57385 10.00842 17.94511-1.04087 9.89833-9.42793 13.41128-1.50126 0.62052-5.19438 0.87073-8.46712 0.55046-12.40043 8.18689-4.10345 7.96671 0.17014 14.86251 2.19185 3.52297 4.80405 5.91499 2.7323 2.5021 6.78571 3.8632 7.33617 2.4721 13.86167 1.131 7.80656-1.6114 11.4096-4.0034 8.71733-5.81487 14.26199-17.51472 5.05426-10.689 5.8149-24.21037 0.52044-9.23778 0.14012-43.78685-0.11009-10.25863 2.11177-20.28707 0.50042-2.23188 0.22019-4.49378-1.80152-14.57226-2.12178-29.51484-0.46039-22.01853 4.2936-43.50661 7.05595-31.95688 23.3997-60.29073 10.5088-18.23534 23.9501-34.38894 3.2427-3.91329 6.3553-5.4746 7.2461-3.64307 15.3229-1.29109 2.6823 0.78066 4.4037 2.90244 6.3955 7.89665 3.3328 18.51558-0.6605 2.28192-3.5329 5.74483-30.4456 36.77095-38.7126 85.58202-0.01 0.05-0.4504 2.23187-0.4804 2.32195-0.4103 5.17436 0.01 0.69058 0.5605 0.27023 8.9775-6.79572 18.9759-11.41961 5.0543-2.33197 8.7874-2.20186 4.9041 0.18015 8.9575 2.98252 3.1327 2.15181 4.5639 5.08427 1.5913 3.25273 1.171 7.06595-1.2711 11.62978-10.7891 18.22534-1.7515 1.21102-1.8015 1.25105-8.317 6.12515-13.8216 14.89253-3.3128 5.28445-4.3137 11.42961-1.6614 10.10851 5.5747 15.60314 2.362 1.79151 4.9342 3.10261 2.8724 1.44121 5.7048 1.5513 7.8666 0.30025 15.7232-2.56215 5.0343-1.83154 8.5873-5.39454 5.3245-5.3445 8.2669-12.54056 5.3145-13.00094 6.8458-26.81255 0.6005-5.39455 0.5004-20.00684-0.2002-28.08364 1.1109-48.28062 1.6214-24.941 13.8517-47.49998 5.4846-10.12852 11.4496-16.34375 12.5906-13.10103 30.9961-16.72407 13.0609-2.57216 19.7567 6.83574 3.1126 4.36368 2.9424 9.47798-0.1901 5.56469-3.4929 9.89833-3.7833 4.95418-10.2687 6.51549-4.9442 1.20101-6.1652 1.77149-6.3954 2.98251-11.3395 8.72734-1.2311 1.4212-1.7115 2.93247-0.8607 2.7223-1.0108 3.01254-0.7907 1.47124-1.7215 2.69226-1.211 1.59134-0.5004 3.4529 1.8215 4.77403 4.754 8.76738 1.181 1.61136 2.9024 2.43205 1.3212 0.63054 3.543 1.60135 6.1752 2.70227 10.7891-1.10093 4.4938-3.69311 7.136-8.88747 17.3347-33.96859 9.2479-70.83961-1.181-5.38454-3.7632-11.1594-2.4321-5.39454-5.0744-10.69901-2.0917-4.20353-3.0125-11.46965-1.6013-12.68067 1.0609-22.70911 1.251-4.69395 5.2945-14.262 10.4688-18.43551 13.1011-22.63905 4.2435-6.79571 11.6998-12.29034 8.6072-6.34535 15.1928-9.35788 6.2852-2.8624 13.0409 0.44037 8.8374 4.32365 9.1677 15.01264 0.2102 6.82574-4.4137 10.60893-6.9358 5.66476-13.5414 11.71986-2.9124 2.67225-3.7431 5.87494-0.5205 2.00169-0.3103 6.67562 0.1902 4.14349 1.3011 7.09597 1.0009 2.65223 3.4329 4.78402 3.1126 2.73231 4.2636 3.86326 6.4054 6.28528 14.5122 4.14348 6.4154-1.70143 9.4379-6.63558 3.3628-5.49462 0.5405-12.84081-2.5922-6.73567 0.03-13.77158 1.7114-4.58387 4.5038-8.12684 1.8215-2.30194 4.4137-2.94248 4.8941-1.21101 10.1585 0.75063 4.6439 1.73146 8.147 4.43373 2.4921 1.93162 3.8933 5.19438 6.9958 16.35375-0.2803 32.77758-9.6682 21.85839-32.6275 29.96521z" fill="#fdd400"/>
  <path d="m1063.2147 588.38719q21.6081 9.35787 43.4665 18.12525 22.2687 8.93751 43.957 19.75662-4.0435 9.56805-5.2945 14.262-2.6622 10.02844-1.0609 22.70911 0.9208 7.26612 3.0125 11.46965 2.6423 5.30447 5.0744 10.69901 2.5822 5.77486 3.7632 11.1594 8.0868 36.87102-9.2479 70.83961-2.6422 5.19436-7.136 8.88747-4.6139 3.8032-10.7891 1.10093-2.2218-0.97081-3.543-1.60135-1.7214-0.82069-2.9024-2.43205-2.9325-3.99335-4.754-8.76738-0.7106-1.86156 0.5004-3.4529 0.9308-1.22102 1.7215-2.69226 0.1501-0.29024 1.0108-3.01254 0.4804-1.51127 1.7115-2.93247 4.9441-5.74483 11.3395-8.72734 1.221-0.57048 6.1652-1.77149 6.4854-1.56131 10.2687-6.51549 3.3028-4.33364 3.4929-9.89833 0.1702-5.1143-2.9424-9.47798-6.6958-9.4079-19.7567-6.83574-18.4055 3.62304-30.9961 16.72407-5.965 6.21523-11.4496 16.34375-12.2303 22.55898-13.8517 47.49998-1.3111 20.19698-1.1109 48.28062 0.1001 14.61229-0.5004 20.00684-1.5313 13.81161-6.8458 26.81255-2.9424 7.19606-8.2669 12.54056-3.553 3.563-8.5873 5.39454-7.8566 2.8624-15.7232 2.56215-2.8324-0.11009-5.7048-1.5513-2.5722-1.3111-4.9342-3.10261-7.2361-5.49463-5.5747-15.60314 1.0009-6.14516 4.3137-11.42961 5.5046-8.76738 13.8216-14.89253 0.05-0.04 1.8015-1.25105 9.518-6.59556 10.7891-18.22534 0.4203-3.81322-1.171-7.06595-1.4312-2.93246-4.5639-5.08427-4.0534-2.80237-8.9575-2.98252-3.7331-0.13011-8.7874 2.20186-9.9984 4.62389-18.9759 11.41961-0.5505 0.42035-0.5605-0.27023-0.07-2.85241 0.4103-5.17436 0.4404-2.18183 0.4504-2.23187 8.267-48.81107 38.7126-85.58202 2.8724-3.46291 3.5329-5.74483 3.0627-10.61893-3.3328-18.51558-1.7214-2.12178-4.4037-2.90244-8.0768-2.35198-15.3229 1.29109-3.1126 1.56131-6.3553 5.4746-13.4413 16.1536-23.9501 34.38894-16.34375 28.33385-23.3997 60.29073-4.75399 21.48808-4.2936 43.50661 0.32026 14.94258 2.12178 29.51484 0.28023 2.2619-0.22019 4.49378-2.22186 10.02844-2.11177 20.28707 0.38032 34.54907-0.14012 43.78685-0.76064 13.52137-5.8149 24.21037-5.54466 11.69985-14.26199 17.51472-3.60304 2.392-11.4096 4.0034-6.5255 1.3411-13.86167-1.131-4.05341-1.3611-6.78571-3.8632-2.6122-2.39202-4.80405-5.91499-4.27359-6.8958-0.17014-14.86251 3.93331-7.63643 12.40043-8.18689 3.69312-0.25021 5.19438-0.87073 8.38706-3.51295 9.42793-13.41128 1.4212-13.37126-10.00842-17.94511-3.71313-1.48124-8.50716-1.15096-3.82322 0.26022-8.36704 1.34112-5.72482 1.36115-10.67899 4.43373-3.48293 2.17184-9.05762 6.97587-8.4371 7.26612-15.31288 16.92425-4.80405 6.76569-8.5572 12.71069-3.9133 6.21524-7.39623 13.40128-12.86082 26.53233-19.08606 55.35653-2.1318 9.8284-3.66308 18.9861-1.59135 9.4679-2.42205 19.2161a1.5212802 1.5212802 0 0 1-0.91076 1.2611q-8.60725 3.6831-17.835 2.7022-8.91751-0.9508-13.74157-8.377-4.95417-7.6264-3.01254-15.9834 1.34113-5.7849 5.38453-10.6089 2.98252-3.573 5.32448-5.2244 2.95249-2.0819 7.05595-2.9326 4.50378-0.9308 9.31784-4.4237 7.22607-5.2344 5.44457-13.5914-0.80067-3.7732-3.15265-7.8266-2.58217-4.4337-5.42457-6.2553-4.53381-2.9224-10.87915-1.6213-26.66244 5.4946-44.53748 26.5222-7.38621 8.6974-12.08017 17.1746-10.20859 18.4255-15.2228 38.7225-2.34197 9.488-4.00337 19.5965-2.2519 13.7315-2.03172 26.7825 0.19016 11.4497-2.0317 21.5883-1.08091 4.9041-2.65223 7.6064-2.1318 3.663-5.63475 6.025-2.41203 1.6214-5.29445 1.0409-2.91245-0.5805-2.96249-0.5805-2.74231-0.3303-5.45459-0.8307-10.4488-1.9116-12.53055-12.3203-2.31195-11.6198 4.29361-21.288 5.66477-8.277 14.73241-11.7799 6.52548-2.5322 7.29613-3.0326 3.67309-2.362 5.8249-6.1552 2.01169-3.5429 1.65139-7.9366-0.66055-8.0368-6.46544-14.1519-5.24441-5.5347-12.81078-3.7932-27.0928 6.2552-42.53579 29.3046-9.84829 14.7024-15.30289 32.7576-4.45374 14.7124-6.3053 28.7442-0.10008 0.7807-0.73061 11.2294-0.52044 8.6373-3.35283 17.6949-1.08091 3.4629-3.12262 5.3845-1.57132 1.4713-8.39707 4.8741-7.50632 3.7332-7.69648 3.8333-59.45003 30.1054-124.21452 46.1889-26.7325-4.3637-53.04464-10.7791-93.5087-22.8092-180.46186-64.0139-30.85597-14.6223-50.7427-25.6916 0.35029 0.1802 0.49041-0.02a0.29024425 0.5804885 28.7 0 1 0.41034-0.2802q7.92667 0.5805 15.87336 0.5905 31.29633 0.05 62.30242-4.1835 45.79855-6.2553 96.79146-22.6491 63.78368-20.5073 123.59401-50.7027 78.33592-39.5532 149.94619-90.286 138.32639-97.98244 252.00206-225.12943 82.49942-92.26764 146.06296-197.01578z" fill="#fbc22d"/>
  <path d="m312.74311 653.32183q-3.48293-2.8524-4.96417-6.84576-1.28108-3.43289-0.68058-8.10682 0.63053-4.97419 2.75232-9.60809 6.99589-15.28286 21.73829-22.62905 3.19268-1.59134 4.88411-3.30277 1.95164-1.97166 3.93331-4.48377 0.32027-0.40034 0.23019 0.10008-0.82069 4.42372-1.60134 8.21692-0.87073 4.21354-1.45122 8.23692-1.85156 12.85082-4.44375 25.58153-0.93078 4.55383-4.29361 11.49968-1.23103 2.54214-3.01253 3.83322-1.41119 1.02087-3.69311 0.60052-1.36115-0.25023-2.71228-0.57049-0.10009-0.03-2.32195-0.45038-2.42205-0.4704-4.36368-2.07174z" fill="#d89a1c"/>
  <path d="m229.60315 794.99104q-2.65223-2.76232-4.57385-6.08511-1.90161-3.27276-2.28192-7.10598-1.26106-12.62062 7.32616-22.16866 3.58301-3.98336 9.13769-7.126 4.80404-2.73229 7.33618-9.41792a0.34028636 0.3603032 30.2 0 1 0.55046-0.16014q2.78234 2.36199 1.93163 6.13517-0.63053 2.78234-2.28192 6.29529a1.611356 1.8315413 50.8 0 0-0.16014 0.9508q1.35114 10.64897 2.19185 14.0218 2.44205 9.72819 0.28023 19.27623-1.04087 4.58385-3.08259 7.03592-3.03256 3.65307-7.6064 3.2127-4.5038-0.43036-8.76738-4.8641z" fill="#d89a1c"/>
  <path d="m22.128549 1058.5729q2.452064 1.9516 3.723133 4.744 1.241044 2.7423 1.281078 2.8223 39.393151 74.1224 119.56062 99.2736 33.08784 10.3787 69.04811 12.6506 19.88673 11.0693 50.7427 25.6916 86.95316 41.2047 180.46186 64.0139 26.31214 6.4154 53.04464 10.7791 40.03368 7.4262 80.49774 9.5981 3.52296 0.5704 9.82827 0.8707 52.09383 2.452 101.56547-2.1718 67.38671-6.2953 131.80091-26.5824 9.48798-2.9925 18.96596-6.3954 105.0484-37.7118 192.85226-109.1619 14.342-11.6698 18.4256-15.2128 0.4503-0.3903 0.8006-0.3803 0.5805 0.02 0.7306 0.8107-49.3515 46.6993-104.08757 89.7855-58.85953 46.3291-122.29291 83.9307-66.20572 39.243-138.71673 65.0948-54.57593 19.4463-109.80241 27.8734-33.69835 5.1443-70.86963 6.0051h-14.262q-31.85682-0.9408-60.24069-5.0042-69.20825-9.9084-133.51237-40.1738-78.02566-36.731-142.40983-99.0033-54.81614-53.0247-95.220138-117.7192-24.510626-39.253-41.915273-82.139z" fill="#e5a91f"/>
 </g>
</svg>
